<svg xmlns="http://www.w3.org/2000/svg" width="1920" height="1063" viewBox="0 0 1920 1063" fill="none"><g clip-path="url(#clip0_2632_4)"><g clip-path="url(#clip1_2632_4)"><path d="M571 738L511.499 873L449 978.5L448.999 1086.5L1572 1086.5L1572 358.499L1517.5 498.499L1442.5 542.999L1363.5 690.999L1280 690.999L1154.5 522.499L988 627.999L911 455.499L740.5 855.499L637 855.499L571 738Z" fill="url(#paint0_linear_2632_4)"></path><path d="M451 981.501L1572 981.5" stroke="#00C5FF" stroke-width="3"></path><line x1="449.5" y1="983" x2="449.5" y2="87" stroke="#00C5FF" stroke-width="3"></line><line opacity="0.1" y1="901.499" x2="1920" y2="901.499" stroke="#00C5FF" stroke-width="3"></line><line opacity="0.1" y1="821.499" x2="1920" y2="821.499" stroke="#00C5FF" stroke-width="3"></line><line opacity="0.1" y1="741.499" x2="1920" y2="741.499" stroke="#00C5FF" stroke-width="3"></line><line opacity="0.1" y1="661.499" x2="1920" y2="661.499" stroke="#00C5FF" stroke-width="3"></line><line opacity="0.1" y1="581.499" x2="1920" y2="581.499" stroke="#00C5FF" stroke-width="3"></line><path d="M372.02 87L368.19 80.0466H367.114V87H362.627V68.5801H370.157C371.609 68.5801 372.843 68.8337 373.857 69.341C374.889 69.8483 375.659 70.548 376.166 71.4401C376.674 72.3148 376.927 73.2944 376.927 74.3789C376.927 75.6034 376.577 76.6967 375.878 77.6588C375.195 78.6209 374.181 79.3032 372.834 79.7055L377.085 87H372.02ZM367.114 76.8717H369.895C370.717 76.8717 371.33 76.6705 371.732 76.2682C372.152 75.8658 372.362 75.2973 372.362 74.5626C372.362 73.8629 372.152 73.3119 371.732 72.9095C371.33 72.5072 370.717 72.306 369.895 72.306H367.114V76.8717ZM393.677 81.6472C393.677 82.6093 393.423 83.5014 392.916 84.3236C392.426 85.1283 391.691 85.793 390.712 86.3178C389.75 86.8251 388.604 87.105 387.274 87.1574V89.2828H385.595V87.1312C383.741 86.9738 382.245 86.4227 381.108 85.4781C379.971 84.516 379.368 83.2128 379.298 81.5685H384.073C384.178 82.618 384.686 83.2915 385.595 83.5889V79.4431C384.231 79.0932 383.137 78.7521 382.315 78.4198C381.511 78.0874 380.802 77.5539 380.19 76.8192C379.578 76.0845 379.272 75.0786 379.272 73.8017C379.272 72.2098 379.858 70.9328 381.03 69.9707C382.219 69.0086 383.741 68.4664 385.595 68.3439V66.2185H387.274V68.3439C389.111 68.4838 390.563 69.0174 391.63 69.9445C392.697 70.8716 393.292 72.1573 393.414 73.8017H388.613C388.508 72.8571 388.062 72.2448 387.274 71.9649V76.032C388.726 76.4343 389.846 76.7929 390.633 77.1078C391.42 77.4227 392.12 77.9475 392.732 78.6822C393.362 79.3994 393.677 80.3877 393.677 81.6472ZM384.021 73.5917C384.021 74.0291 384.152 74.3964 384.414 74.6938C384.694 74.9912 385.088 75.2536 385.595 75.481V71.8337C385.105 71.9212 384.721 72.1136 384.441 72.411C384.161 72.6909 384.021 73.0845 384.021 73.5917ZM387.274 83.6676C387.799 83.5802 388.21 83.3702 388.508 83.0379C388.823 82.7055 388.98 82.2944 388.98 81.8046C388.98 81.3498 388.831 80.9825 388.534 80.7026C388.254 80.4052 387.834 80.1516 387.274 79.9416V83.6676ZM396.411 83.4052C397.006 82.9329 397.277 82.7143 397.224 82.7492C398.939 81.3323 400.286 80.1691 401.265 79.2594C402.262 78.3498 403.102 77.3964 403.784 76.3993C404.467 75.4023 404.808 74.4314 404.808 73.4868C404.808 72.7696 404.641 72.2098 404.309 71.8075C403.977 71.4051 403.478 71.204 402.813 71.204C402.149 71.204 401.624 71.4576 401.239 71.9649C400.872 72.4547 400.688 73.1544 400.688 74.0641H396.359C396.394 72.5772 396.708 71.3352 397.303 70.3381C397.915 69.341 398.711 68.6063 399.691 68.134C400.688 67.6617 401.79 67.4255 402.997 67.4255C405.079 67.4255 406.644 67.9591 407.694 69.0261C408.761 70.0932 409.295 71.4839 409.295 73.1982C409.295 75.0699 408.656 76.8104 407.379 78.4198C406.102 80.0116 404.475 81.5685 402.499 83.0904H409.583V86.7376H396.411V83.4052ZM432.865 68.5801V87H428.378V75.9533L424.258 87H420.637L416.492 75.927V87H412.005V68.5801H417.305L422.474 81.3323L427.591 68.5801H432.865Z" fill="#00C5FF"></path><path opacity="0.5" d="M374.347 887L371.793 882.364H371.076V887H368.085V874.72H373.105C374.073 874.72 374.895 874.889 375.571 875.227C376.26 875.566 376.773 876.032 377.111 876.627C377.449 877.21 377.618 877.863 377.618 878.586C377.618 879.402 377.385 880.131 376.918 880.773C376.464 881.414 375.787 881.869 374.889 882.137L377.723 887H374.347ZM371.076 880.248H372.93C373.478 880.248 373.886 880.114 374.155 879.845C374.434 879.577 374.574 879.198 374.574 878.708C374.574 878.242 374.434 877.875 374.155 877.606C373.886 877.338 373.478 877.204 372.93 877.204H371.076V880.248ZM388.785 883.431C388.785 884.073 388.615 884.668 388.277 885.216C387.951 885.752 387.461 886.195 386.808 886.545C386.166 886.883 385.403 887.07 384.516 887.105V888.522H383.397V887.087C382.161 886.983 381.164 886.615 380.406 885.985C379.647 885.344 379.245 884.475 379.199 883.379H382.382C382.452 884.079 382.79 884.528 383.397 884.726V881.962C382.487 881.729 381.758 881.501 381.21 881.28C380.674 881.058 380.201 880.703 379.793 880.213C379.385 879.723 379.181 879.052 379.181 878.201C379.181 877.14 379.572 876.289 380.353 875.647C381.146 875.006 382.161 874.644 383.397 874.563V873.146H384.516V874.563C385.741 874.656 386.709 875.012 387.42 875.63C388.132 876.248 388.528 877.105 388.61 878.201H385.408C385.338 877.571 385.041 877.163 384.516 876.977V879.688C385.484 879.956 386.231 880.195 386.755 880.405C387.28 880.615 387.747 880.965 388.155 881.455C388.575 881.933 388.785 882.592 388.785 883.431ZM382.347 878.061C382.347 878.353 382.435 878.598 382.61 878.796C382.796 878.994 383.059 879.169 383.397 879.321V876.889C383.07 876.947 382.814 877.076 382.627 877.274C382.441 877.461 382.347 877.723 382.347 878.061ZM384.516 884.778C384.866 884.72 385.14 884.58 385.338 884.359C385.548 884.137 385.653 883.863 385.653 883.536C385.653 883.233 385.554 882.988 385.356 882.802C385.169 882.603 384.89 882.434 384.516 882.294V884.778ZM390.607 884.603C391.004 884.289 391.185 884.143 391.15 884.166C392.293 883.222 393.19 882.446 393.844 881.84C394.508 881.233 395.068 880.598 395.523 879.933C395.978 879.268 396.205 878.621 396.205 877.991C396.205 877.513 396.094 877.14 395.873 876.872C395.651 876.603 395.319 876.469 394.876 876.469C394.432 876.469 394.083 876.638 393.826 876.977C393.581 877.303 393.459 877.77 393.459 878.376H390.572C390.596 877.385 390.806 876.557 391.202 875.892C391.61 875.227 392.141 874.738 392.794 874.423C393.459 874.108 394.193 873.95 394.998 873.95C396.386 873.95 397.43 874.306 398.129 875.017C398.841 875.729 399.196 876.656 399.196 877.799C399.196 879.047 398.771 880.207 397.919 881.28C397.068 882.341 395.984 883.379 394.666 884.394H399.389V886.825H390.607V884.603ZM400.706 880.44C400.706 878.434 401.091 876.854 401.86 875.7C402.642 874.545 403.895 873.968 405.621 873.968C407.347 873.968 408.595 874.545 409.365 875.7C410.146 876.854 410.537 878.434 410.537 880.44C410.537 882.469 410.146 884.061 409.365 885.216C408.595 886.37 407.347 886.948 405.621 886.948C403.895 886.948 402.642 886.37 401.86 885.216C401.091 884.061 400.706 882.469 400.706 880.44ZM407.598 880.44C407.598 879.262 407.47 878.359 407.213 877.729C406.957 877.087 406.426 876.767 405.621 876.767C404.817 876.767 404.286 877.087 404.029 877.729C403.773 878.359 403.645 879.262 403.645 880.44C403.645 881.233 403.691 881.892 403.785 882.417C403.878 882.93 404.064 883.35 404.344 883.676C404.636 883.991 405.062 884.149 405.621 884.149C406.181 884.149 406.601 883.991 406.881 883.676C407.172 883.35 407.365 882.93 407.458 882.417C407.551 881.892 407.598 881.233 407.598 880.44ZM412.117 880.44C412.117 878.434 412.502 876.854 413.272 875.7C414.053 874.545 415.307 873.968 417.033 873.968C418.759 873.968 420.006 874.545 420.776 875.7C421.557 876.854 421.948 878.434 421.948 880.44C421.948 882.469 421.557 884.061 420.776 885.216C420.006 886.37 418.759 886.948 417.033 886.948C415.307 886.948 414.053 886.37 413.272 885.216C412.502 884.061 412.117 882.469 412.117 880.44ZM419.009 880.44C419.009 879.262 418.881 878.359 418.624 877.729C418.368 877.087 417.837 876.767 417.033 876.767C416.228 876.767 415.697 877.087 415.441 877.729C415.184 878.359 415.056 879.262 415.056 880.44C415.056 881.233 415.103 881.892 415.196 882.417C415.289 882.93 415.476 883.35 415.756 883.676C416.047 883.991 416.473 884.149 417.033 884.149C417.592 884.149 418.012 883.991 418.292 883.676C418.584 883.35 418.776 882.93 418.869 882.417C418.963 881.892 419.009 881.233 419.009 880.44ZM430.945 887L426.817 881.577V887H423.826V874.72H426.817V880.108L430.91 874.72H434.426L429.668 880.738L434.601 887H430.945Z" fill="#AFECFF"></path><path opacity="0.5" d="M373.347 807L370.793 802.364H370.076V807H367.085V794.72H372.105C373.073 794.72 373.895 794.889 374.571 795.227C375.26 795.566 375.773 796.032 376.111 796.627C376.449 797.21 376.618 797.863 376.618 798.586C376.618 799.402 376.385 800.131 375.918 800.773C375.464 801.414 374.787 801.869 373.889 802.137L376.723 807H373.347ZM370.076 800.248H371.93C372.478 800.248 372.886 800.114 373.155 799.845C373.434 799.577 373.574 799.198 373.574 798.708C373.574 798.242 373.434 797.875 373.155 797.606C372.886 797.338 372.478 797.204 371.93 797.204H370.076V800.248ZM387.785 803.431C387.785 804.073 387.615 804.668 387.277 805.216C386.951 805.752 386.461 806.195 385.808 806.545C385.166 806.883 384.403 807.07 383.516 807.105V808.522H382.397V807.087C381.161 806.983 380.164 806.615 379.406 805.985C378.647 805.344 378.245 804.475 378.199 803.379H381.382C381.452 804.079 381.79 804.528 382.397 804.726V801.962C381.487 801.729 380.758 801.501 380.21 801.28C379.674 801.058 379.201 800.703 378.793 800.213C378.385 799.723 378.181 799.052 378.181 798.201C378.181 797.14 378.572 796.289 379.353 795.647C380.146 795.006 381.161 794.644 382.397 794.563V793.146H383.516V794.563C384.741 794.656 385.709 795.012 386.42 795.63C387.132 796.248 387.528 797.105 387.61 798.201H384.408C384.338 797.571 384.041 797.163 383.516 796.977V799.688C384.484 799.956 385.231 800.195 385.755 800.405C386.28 800.615 386.747 800.965 387.155 801.455C387.575 801.933 387.785 802.592 387.785 803.431ZM381.347 798.061C381.347 798.353 381.435 798.598 381.61 798.796C381.796 798.994 382.059 799.169 382.397 799.321V796.889C382.07 796.947 381.814 797.076 381.627 797.274C381.441 797.461 381.347 797.723 381.347 798.061ZM383.516 804.778C383.866 804.72 384.14 804.58 384.338 804.359C384.548 804.137 384.653 803.863 384.653 803.536C384.653 803.233 384.554 802.988 384.356 802.802C384.169 802.603 383.89 802.434 383.516 802.294V804.778ZM389.817 797.834C389.864 796.586 390.272 795.624 391.042 794.947C391.811 794.271 392.855 793.933 394.173 793.933C395.048 793.933 395.794 794.084 396.412 794.388C397.042 794.691 397.514 795.105 397.829 795.63C398.156 796.154 398.319 796.743 398.319 797.396C398.319 798.166 398.126 798.796 397.742 799.286C397.357 799.764 396.908 800.09 396.395 800.265V800.335C397.059 800.557 397.584 800.924 397.969 801.437C398.354 801.95 398.546 802.609 398.546 803.414C398.546 804.137 398.377 804.778 398.039 805.338C397.712 805.886 397.228 806.318 396.587 806.633C395.957 806.948 395.205 807.105 394.33 807.105C392.931 807.105 391.811 806.761 390.972 806.073C390.144 805.385 389.707 804.347 389.66 802.959H392.564C392.575 803.472 392.721 803.88 393.001 804.184C393.281 804.475 393.689 804.621 394.225 804.621C394.68 804.621 395.03 804.493 395.275 804.236C395.532 803.968 395.66 803.618 395.66 803.187C395.66 802.627 395.479 802.224 395.118 801.98C394.768 801.723 394.202 801.595 393.421 801.595H392.861V799.163H393.421C394.016 799.163 394.494 799.064 394.855 798.866C395.228 798.656 395.415 798.289 395.415 797.764C395.415 797.344 395.298 797.017 395.065 796.784C394.832 796.551 394.511 796.434 394.103 796.434C393.66 796.434 393.328 796.568 393.106 796.837C392.896 797.105 392.774 797.437 392.739 797.834H389.817ZM400.304 800.44C400.304 798.434 400.689 796.854 401.458 795.7C402.24 794.545 403.493 793.968 405.219 793.968C406.945 793.968 408.193 794.545 408.963 795.7C409.744 796.854 410.135 798.434 410.135 800.44C410.135 802.469 409.744 804.061 408.963 805.216C408.193 806.37 406.945 806.948 405.219 806.948C403.493 806.948 402.24 806.37 401.458 805.216C400.689 804.061 400.304 802.469 400.304 800.44ZM407.196 800.44C407.196 799.262 407.068 798.359 406.811 797.729C406.554 797.087 406.024 796.767 405.219 796.767C404.415 796.767 403.884 797.087 403.627 797.729C403.371 798.359 403.242 799.262 403.242 800.44C403.242 801.233 403.289 801.892 403.382 802.417C403.476 802.93 403.662 803.35 403.942 803.676C404.234 803.991 404.659 804.149 405.219 804.149C405.779 804.149 406.199 803.991 406.479 803.676C406.77 803.35 406.963 802.93 407.056 802.417C407.149 801.892 407.196 801.233 407.196 800.44ZM411.715 800.44C411.715 798.434 412.1 796.854 412.87 795.7C413.651 794.545 414.905 793.968 416.631 793.968C418.356 793.968 419.604 794.545 420.374 795.7C421.155 796.854 421.546 798.434 421.546 800.44C421.546 802.469 421.155 804.061 420.374 805.216C419.604 806.37 418.356 806.948 416.631 806.948C414.905 806.948 413.651 806.37 412.87 805.216C412.1 804.061 411.715 802.469 411.715 800.44ZM418.607 800.44C418.607 799.262 418.479 798.359 418.222 797.729C417.966 797.087 417.435 796.767 416.631 796.767C415.826 796.767 415.295 797.087 415.039 797.729C414.782 798.359 414.654 799.262 414.654 800.44C414.654 801.233 414.7 801.892 414.794 802.417C414.887 802.93 415.074 803.35 415.354 803.676C415.645 803.991 416.071 804.149 416.631 804.149C417.19 804.149 417.61 803.991 417.89 803.676C418.182 803.35 418.374 802.93 418.467 802.417C418.561 801.892 418.607 801.233 418.607 800.44ZM430.543 807L426.415 801.577V807H423.424V794.72H426.415V800.108L430.508 794.72H434.024L429.266 800.738L434.199 807H430.543Z" fill="#AFECFF"></path><path opacity="0.5" d="M372.347 727L369.793 722.364H369.076V727H366.085V714.72H371.105C372.073 714.72 372.895 714.889 373.571 715.227C374.26 715.566 374.773 716.032 375.111 716.627C375.449 717.21 375.618 717.863 375.618 718.586C375.618 719.402 375.385 720.131 374.918 720.773C374.464 721.414 373.787 721.869 372.889 722.137L375.723 727H372.347ZM369.076 720.248H370.93C371.478 720.248 371.886 720.114 372.155 719.845C372.434 719.577 372.574 719.198 372.574 718.708C372.574 718.242 372.434 717.875 372.155 717.606C371.886 717.338 371.478 717.204 370.93 717.204H369.076V720.248ZM386.785 723.431C386.785 724.073 386.615 724.668 386.277 725.216C385.951 725.752 385.461 726.195 384.808 726.545C384.166 726.883 383.403 727.07 382.516 727.105V728.522H381.397V727.087C380.161 726.983 379.164 726.615 378.406 725.985C377.647 725.344 377.245 724.475 377.199 723.379H380.382C380.452 724.079 380.79 724.528 381.397 724.726V721.962C380.487 721.729 379.758 721.501 379.21 721.28C378.674 721.058 378.201 720.703 377.793 720.213C377.385 719.723 377.181 719.052 377.181 718.201C377.181 717.14 377.572 716.289 378.353 715.647C379.146 715.006 380.161 714.644 381.397 714.563V713.146H382.516V714.563C383.741 714.656 384.709 715.012 385.42 715.63C386.132 716.248 386.528 717.105 386.61 718.201H383.408C383.338 717.571 383.041 717.163 382.516 716.977V719.688C383.484 719.956 384.231 720.195 384.755 720.405C385.28 720.615 385.747 720.965 386.155 721.455C386.575 721.933 386.785 722.592 386.785 723.431ZM380.347 718.061C380.347 718.353 380.435 718.598 380.61 718.796C380.796 718.994 381.059 719.169 381.397 719.321V716.889C381.07 716.947 380.814 717.076 380.627 717.274C380.441 717.461 380.347 717.723 380.347 718.061ZM382.516 724.778C382.866 724.72 383.14 724.58 383.338 724.359C383.548 724.137 383.653 723.863 383.653 723.536C383.653 723.233 383.554 722.988 383.356 722.802C383.169 722.603 382.89 722.434 382.516 722.294V724.778ZM388.782 724.726V722.312L394.31 714.405H397.651V722.137H399.086V724.726H397.651V727H394.66V724.726H388.782ZM394.87 717.694L391.931 722.137H394.87V717.694ZM400.551 720.44C400.551 718.434 400.936 716.854 401.705 715.7C402.487 714.545 403.74 713.968 405.466 713.968C407.192 713.968 408.44 714.545 409.21 715.7C409.991 716.854 410.382 718.434 410.382 720.44C410.382 722.469 409.991 724.061 409.21 725.216C408.44 726.37 407.192 726.948 405.466 726.948C403.74 726.948 402.487 726.37 401.705 725.216C400.936 724.061 400.551 722.469 400.551 720.44ZM407.443 720.44C407.443 719.262 407.315 718.359 407.058 717.729C406.802 717.087 406.271 716.767 405.466 716.767C404.662 716.767 404.131 717.087 403.874 717.729C403.618 718.359 403.49 719.262 403.49 720.44C403.49 721.233 403.536 721.892 403.629 722.417C403.723 722.93 403.909 723.35 404.189 723.676C404.481 723.991 404.906 724.149 405.466 724.149C406.026 724.149 406.446 723.991 406.726 723.676C407.017 723.35 407.21 722.93 407.303 722.417C407.396 721.892 407.443 721.233 407.443 720.44ZM411.962 720.44C411.962 718.434 412.347 716.854 413.117 715.7C413.898 714.545 415.152 713.968 416.878 713.968C418.604 713.968 419.851 714.545 420.621 715.7C421.402 716.854 421.793 718.434 421.793 720.44C421.793 722.469 421.402 724.061 420.621 725.216C419.851 726.37 418.604 726.948 416.878 726.948C415.152 726.948 413.898 726.37 413.117 725.216C412.347 724.061 411.962 722.469 411.962 720.44ZM418.854 720.44C418.854 719.262 418.726 718.359 418.469 717.729C418.213 717.087 417.682 716.767 416.878 716.767C416.073 716.767 415.542 717.087 415.286 717.729C415.029 718.359 414.901 719.262 414.901 720.44C414.901 721.233 414.948 721.892 415.041 722.417C415.134 722.93 415.321 723.35 415.601 723.676C415.892 723.991 416.318 724.149 416.878 724.149C417.437 724.149 417.857 723.991 418.137 723.676C418.429 723.35 418.621 722.93 418.714 722.417C418.808 721.892 418.854 721.233 418.854 720.44ZM430.79 727L426.662 721.577V727H423.671V714.72H426.662V720.108L430.755 714.72H434.271L429.513 720.738L434.446 727H430.79Z" fill="#AFECFF"></path><path opacity="0.5" d="M372.347 647L369.793 642.364H369.076V647H366.085V634.72H371.105C372.073 634.72 372.895 634.889 373.571 635.227C374.26 635.566 374.773 636.032 375.111 636.627C375.449 637.21 375.618 637.863 375.618 638.586C375.618 639.402 375.385 640.131 374.918 640.773C374.464 641.414 373.787 641.869 372.889 642.137L375.723 647H372.347ZM369.076 640.248H370.93C371.478 640.248 371.886 640.114 372.155 639.845C372.434 639.577 372.574 639.198 372.574 638.708C372.574 638.242 372.434 637.875 372.155 637.606C371.886 637.338 371.478 637.204 370.93 637.204H369.076V640.248ZM386.785 643.431C386.785 644.073 386.615 644.668 386.277 645.216C385.951 645.752 385.461 646.195 384.808 646.545C384.166 646.883 383.403 647.07 382.516 647.105V648.522H381.397V647.087C380.161 646.983 379.164 646.615 378.406 645.985C377.647 645.344 377.245 644.475 377.199 643.379H380.382C380.452 644.079 380.79 644.528 381.397 644.726V641.962C380.487 641.729 379.758 641.501 379.21 641.28C378.674 641.058 378.201 640.703 377.793 640.213C377.385 639.723 377.181 639.052 377.181 638.201C377.181 637.14 377.572 636.289 378.353 635.647C379.146 635.006 380.161 634.644 381.397 634.563V633.146H382.516V634.563C383.741 634.656 384.709 635.012 385.42 635.63C386.132 636.248 386.528 637.105 386.61 638.201H383.408C383.338 637.571 383.041 637.163 382.516 636.977V639.688C383.484 639.956 384.231 640.195 384.755 640.405C385.28 640.615 385.747 640.965 386.155 641.455C386.575 641.933 386.785 642.592 386.785 643.431ZM380.347 638.061C380.347 638.353 380.435 638.598 380.61 638.796C380.796 638.994 381.059 639.169 381.397 639.321V636.889C381.07 636.947 380.814 637.076 380.627 637.274C380.441 637.461 380.347 637.723 380.347 638.061ZM382.516 644.778C382.866 644.72 383.14 644.58 383.338 644.359C383.548 644.137 383.653 643.863 383.653 643.536C383.653 643.233 383.554 642.988 383.356 642.802C383.169 642.603 382.89 642.434 382.516 642.294V644.778ZM397.704 636.837H392.246V639.251C392.479 638.994 392.806 638.784 393.225 638.621C393.645 638.458 394.1 638.376 394.59 638.376C395.465 638.376 396.188 638.574 396.759 638.971C397.342 639.367 397.768 639.88 398.036 640.51C398.304 641.14 398.438 641.822 398.438 642.557C398.438 643.921 398.054 645.006 397.284 645.81C396.514 646.603 395.43 647 394.03 647C393.097 647 392.287 646.843 391.599 646.528C390.911 646.201 390.38 645.752 390.007 645.181C389.634 644.609 389.43 643.95 389.395 643.204H392.316C392.386 643.566 392.555 643.869 392.823 644.114C393.091 644.347 393.459 644.464 393.925 644.464C394.473 644.464 394.881 644.289 395.15 643.939C395.418 643.589 395.552 643.122 395.552 642.539C395.552 641.968 395.412 641.531 395.132 641.227C394.852 640.924 394.444 640.773 393.908 640.773C393.511 640.773 393.185 640.872 392.928 641.07C392.672 641.257 392.502 641.507 392.421 641.822H389.535V634.213H397.704V636.837ZM400.09 640.44C400.09 638.434 400.474 636.854 401.244 635.7C402.025 634.545 403.279 633.968 405.005 633.968C406.731 633.968 407.979 634.545 408.748 635.7C409.53 636.854 409.92 638.434 409.92 640.44C409.92 642.469 409.53 644.061 408.748 645.216C407.979 646.37 406.731 646.948 405.005 646.948C403.279 646.948 402.025 646.37 401.244 645.216C400.474 644.061 400.09 642.469 400.09 640.44ZM406.982 640.44C406.982 639.262 406.853 638.359 406.597 637.729C406.34 637.087 405.81 636.767 405.005 636.767C404.2 636.767 403.67 637.087 403.413 637.729C403.157 638.359 403.028 639.262 403.028 640.44C403.028 641.233 403.075 641.892 403.168 642.417C403.262 642.93 403.448 643.35 403.728 643.676C404.02 643.991 404.445 644.149 405.005 644.149C405.565 644.149 405.985 643.991 406.264 643.676C406.556 643.35 406.748 642.93 406.842 642.417C406.935 641.892 406.982 641.233 406.982 640.44ZM411.501 640.44C411.501 638.434 411.886 636.854 412.655 635.7C413.437 634.545 414.69 633.968 416.416 633.968C418.142 633.968 419.39 634.545 420.16 635.7C420.941 636.854 421.332 638.434 421.332 640.44C421.332 642.469 420.941 644.061 420.16 645.216C419.39 646.37 418.142 646.948 416.416 646.948C414.69 646.948 413.437 646.37 412.655 645.216C411.886 644.061 411.501 642.469 411.501 640.44ZM418.393 640.44C418.393 639.262 418.265 638.359 418.008 637.729C417.752 637.087 417.221 636.767 416.416 636.767C415.612 636.767 415.081 637.087 414.824 637.729C414.568 638.359 414.44 639.262 414.44 640.44C414.44 641.233 414.486 641.892 414.58 642.417C414.673 642.93 414.859 643.35 415.139 643.676C415.431 643.991 415.857 644.149 416.416 644.149C416.976 644.149 417.396 643.991 417.676 643.676C417.967 643.35 418.16 642.93 418.253 642.417C418.346 641.892 418.393 641.233 418.393 640.44ZM430.329 647L426.201 641.577V647H423.21V634.72H426.201V640.108L430.294 634.72H433.81L429.052 640.738L433.985 647H430.329Z" fill="#AFECFF"></path><path opacity="0.5" d="M372.347 567L369.793 562.364H369.076V567H366.085V554.72H371.105C372.073 554.72 372.895 554.889 373.571 555.227C374.26 555.566 374.773 556.032 375.111 556.627C375.449 557.21 375.618 557.863 375.618 558.586C375.618 559.402 375.385 560.131 374.918 560.773C374.464 561.414 373.787 561.869 372.889 562.137L375.723 567H372.347ZM369.076 560.248H370.93C371.478 560.248 371.886 560.114 372.155 559.845C372.434 559.577 372.574 559.198 372.574 558.708C372.574 558.242 372.434 557.875 372.155 557.606C371.886 557.338 371.478 557.204 370.93 557.204H369.076V560.248ZM386.785 563.431C386.785 564.073 386.615 564.668 386.277 565.216C385.951 565.752 385.461 566.195 384.808 566.545C384.166 566.883 383.403 567.07 382.516 567.105V568.522H381.397V567.087C380.161 566.983 379.164 566.615 378.406 565.985C377.647 565.344 377.245 564.475 377.199 563.379H380.382C380.452 564.079 380.79 564.528 381.397 564.726V561.962C380.487 561.729 379.758 561.501 379.21 561.28C378.674 561.058 378.201 560.703 377.793 560.213C377.385 559.723 377.181 559.052 377.181 558.201C377.181 557.14 377.572 556.289 378.353 555.647C379.146 555.006 380.161 554.644 381.397 554.563V553.146H382.516V554.563C383.741 554.656 384.709 555.012 385.42 555.63C386.132 556.248 386.528 557.105 386.61 558.201H383.408C383.338 557.571 383.041 557.163 382.516 556.977V559.688C383.484 559.956 384.231 560.195 384.755 560.405C385.28 560.615 385.747 560.965 386.155 561.455C386.575 561.933 386.785 562.592 386.785 563.431ZM380.347 558.061C380.347 558.353 380.435 558.598 380.61 558.796C380.796 558.994 381.059 559.169 381.397 559.321V556.889C381.07 556.947 380.814 557.076 380.627 557.274C380.441 557.461 380.347 557.723 380.347 558.061ZM382.516 564.778C382.866 564.72 383.14 564.58 383.338 564.359C383.548 564.137 383.653 563.863 383.653 563.536C383.653 563.233 383.554 562.988 383.356 562.802C383.169 562.603 382.89 562.434 382.516 562.294V564.778ZM395.027 557.676C394.934 557.245 394.771 556.924 394.537 556.714C394.304 556.493 393.972 556.382 393.54 556.382C392.876 556.382 392.397 556.673 392.106 557.256C391.814 557.828 391.663 558.738 391.651 559.985C391.908 559.577 392.275 559.257 392.753 559.023C393.243 558.79 393.779 558.673 394.363 558.673C395.505 558.673 396.421 559.035 397.109 559.758C397.809 560.481 398.158 561.49 398.158 562.784C398.158 563.636 397.984 564.382 397.634 565.023C397.295 565.665 396.794 566.166 396.129 566.528C395.476 566.889 394.701 567.07 393.803 567.07C392.007 567.07 390.759 566.51 390.059 565.391C389.36 564.259 389.01 562.638 389.01 560.528C389.01 558.312 389.377 556.668 390.112 555.595C390.858 554.51 392.048 553.968 393.68 553.968C394.555 553.968 395.29 554.143 395.884 554.493C396.491 554.831 396.946 555.28 397.249 555.84C397.564 556.399 397.75 557.012 397.809 557.676H395.027ZM393.645 561.035C393.144 561.035 392.724 561.187 392.386 561.49C392.059 561.781 391.896 562.201 391.896 562.749C391.896 563.309 392.048 563.746 392.351 564.061C392.666 564.376 393.109 564.534 393.68 564.534C394.193 564.534 394.596 564.382 394.887 564.079C395.191 563.764 395.342 563.338 395.342 562.802C395.342 562.254 395.196 561.822 394.905 561.507C394.613 561.192 394.193 561.035 393.645 561.035ZM399.85 560.44C399.85 558.434 400.235 556.854 401.005 555.7C401.786 554.545 403.04 553.968 404.766 553.968C406.492 553.968 407.74 554.545 408.509 555.7C409.291 556.854 409.681 558.434 409.681 560.44C409.681 562.469 409.291 564.061 408.509 565.216C407.74 566.37 406.492 566.948 404.766 566.948C403.04 566.948 401.786 566.37 401.005 565.216C400.235 564.061 399.85 562.469 399.85 560.44ZM406.743 560.44C406.743 559.262 406.614 558.359 406.358 557.729C406.101 557.087 405.571 556.767 404.766 556.767C403.961 556.767 403.431 557.087 403.174 557.729C402.917 558.359 402.789 559.262 402.789 560.44C402.789 561.233 402.836 561.892 402.929 562.417C403.022 562.93 403.209 563.35 403.489 563.676C403.78 563.991 404.206 564.149 404.766 564.149C405.326 564.149 405.745 563.991 406.025 563.676C406.317 563.35 406.509 562.93 406.603 562.417C406.696 561.892 406.743 561.233 406.743 560.44ZM411.262 560.44C411.262 558.434 411.647 556.854 412.416 555.7C413.198 554.545 414.451 553.968 416.177 553.968C417.903 553.968 419.151 554.545 419.921 555.7C420.702 556.854 421.093 558.434 421.093 560.44C421.093 562.469 420.702 564.061 419.921 565.216C419.151 566.37 417.903 566.948 416.177 566.948C414.451 566.948 413.198 566.37 412.416 565.216C411.647 564.061 411.262 562.469 411.262 560.44ZM418.154 560.44C418.154 559.262 418.026 558.359 417.769 557.729C417.512 557.087 416.982 556.767 416.177 556.767C415.372 556.767 414.842 557.087 414.585 557.729C414.329 558.359 414.2 559.262 414.2 560.44C414.2 561.233 414.247 561.892 414.34 562.417C414.434 562.93 414.62 563.35 414.9 563.676C415.192 563.991 415.617 564.149 416.177 564.149C416.737 564.149 417.157 563.991 417.437 563.676C417.728 563.35 417.921 562.93 418.014 562.417C418.107 561.892 418.154 561.233 418.154 560.44ZM430.09 567L425.962 561.577V567H422.97V554.72H425.962V560.108L430.055 554.72H433.571L428.813 560.738L433.746 567H430.09Z" fill="#AFECFF"></path><path opacity="0.5" d="M374.347 487L371.793 482.364H371.076V487H368.085V474.72H373.105C374.073 474.72 374.895 474.889 375.571 475.227C376.26 475.566 376.773 476.032 377.111 476.627C377.449 477.21 377.618 477.863 377.618 478.586C377.618 479.402 377.385 480.131 376.918 480.773C376.464 481.414 375.787 481.869 374.889 482.137L377.723 487H374.347ZM371.076 480.248H372.93C373.478 480.248 373.886 480.114 374.155 479.845C374.434 479.577 374.574 479.198 374.574 478.708C374.574 478.242 374.434 477.875 374.155 477.606C373.886 477.338 373.478 477.204 372.93 477.204H371.076V480.248ZM388.785 483.431C388.785 484.073 388.615 484.668 388.277 485.216C387.951 485.752 387.461 486.195 386.808 486.545C386.166 486.883 385.403 487.07 384.516 487.105V488.522H383.397V487.087C382.161 486.983 381.164 486.615 380.406 485.985C379.647 485.344 379.245 484.475 379.199 483.379H382.382C382.452 484.079 382.79 484.528 383.397 484.726V481.962C382.487 481.729 381.758 481.501 381.21 481.28C380.674 481.058 380.201 480.703 379.793 480.213C379.385 479.723 379.181 479.052 379.181 478.201C379.181 477.14 379.572 476.289 380.353 475.647C381.146 475.006 382.161 474.644 383.397 474.563V473.146H384.516V474.563C385.741 474.656 386.709 475.012 387.42 475.63C388.132 476.248 388.528 477.105 388.61 478.201H385.408C385.338 477.571 385.041 477.163 384.516 476.977V479.688C385.484 479.956 386.231 480.195 386.755 480.405C387.28 480.615 387.747 480.965 388.155 481.455C388.575 481.933 388.785 482.592 388.785 483.431ZM382.347 478.061C382.347 478.353 382.435 478.598 382.61 478.796C382.796 478.994 383.059 479.169 383.397 479.321V476.889C383.07 476.947 382.814 477.076 382.627 477.274C382.441 477.461 382.347 477.723 382.347 478.061ZM384.516 484.778C384.866 484.72 385.14 484.58 385.338 484.359C385.548 484.137 385.653 483.863 385.653 483.536C385.653 483.233 385.554 482.988 385.356 482.802C385.169 482.603 384.89 482.434 384.516 482.294V484.778ZM398.864 476.469L394.473 487H391.412L395.855 476.802H390.415V474.248H398.864V476.469ZM400.074 480.44C400.074 478.434 400.459 476.854 401.228 475.7C402.01 474.545 403.263 473.968 404.989 473.968C406.715 473.968 407.963 474.545 408.733 475.7C409.514 476.854 409.905 478.434 409.905 480.44C409.905 482.469 409.514 484.061 408.733 485.216C407.963 486.37 406.715 486.948 404.989 486.948C403.263 486.948 402.01 486.37 401.228 485.216C400.459 484.061 400.074 482.469 400.074 480.44ZM406.966 480.44C406.966 479.262 406.838 478.359 406.581 477.729C406.325 477.087 405.794 476.767 404.989 476.767C404.185 476.767 403.654 477.087 403.397 477.729C403.141 478.359 403.013 479.262 403.013 480.44C403.013 481.233 403.059 481.892 403.152 482.417C403.246 482.93 403.432 483.35 403.712 483.676C404.004 483.991 404.429 484.149 404.989 484.149C405.549 484.149 405.969 483.991 406.249 483.676C406.54 483.35 406.733 482.93 406.826 482.417C406.919 481.892 406.966 481.233 406.966 480.44ZM411.485 480.44C411.485 478.434 411.87 476.854 412.64 475.7C413.421 474.545 414.675 473.968 416.401 473.968C418.127 473.968 419.374 474.545 420.144 475.7C420.925 476.854 421.316 478.434 421.316 480.44C421.316 482.469 420.925 484.061 420.144 485.216C419.374 486.37 418.127 486.948 416.401 486.948C414.675 486.948 413.421 486.37 412.64 485.216C411.87 484.061 411.485 482.469 411.485 480.44ZM418.377 480.44C418.377 479.262 418.249 478.359 417.992 477.729C417.736 477.087 417.205 476.767 416.401 476.767C415.596 476.767 415.065 477.087 414.809 477.729C414.552 478.359 414.424 479.262 414.424 480.44C414.424 481.233 414.471 481.892 414.564 482.417C414.657 482.93 414.844 483.35 415.124 483.676C415.415 483.991 415.841 484.149 416.401 484.149C416.96 484.149 417.38 483.991 417.66 483.676C417.952 483.35 418.144 482.93 418.237 482.417C418.331 481.892 418.377 481.233 418.377 480.44ZM430.313 487L426.185 481.577V487H423.194V474.72H426.185V480.108L430.278 474.72H433.794L429.036 480.738L433.969 487H430.313Z" fill="#AFECFF"></path><path opacity="0.5" d="M372.347 407L369.793 402.364H369.076V407H366.085V394.72H371.105C372.073 394.72 372.895 394.889 373.571 395.227C374.26 395.566 374.773 396.032 375.111 396.627C375.449 397.21 375.618 397.863 375.618 398.586C375.618 399.402 375.385 400.131 374.918 400.773C374.464 401.414 373.787 401.869 372.889 402.137L375.723 407H372.347ZM369.076 400.248H370.93C371.478 400.248 371.886 400.114 372.155 399.845C372.434 399.577 372.574 399.198 372.574 398.708C372.574 398.242 372.434 397.875 372.155 397.606C371.886 397.338 371.478 397.204 370.93 397.204H369.076V400.248ZM386.785 403.431C386.785 404.073 386.615 404.668 386.277 405.216C385.951 405.752 385.461 406.195 384.808 406.545C384.166 406.883 383.403 407.07 382.516 407.105V408.522H381.397V407.087C380.161 406.983 379.164 406.615 378.406 405.985C377.647 405.344 377.245 404.475 377.199 403.379H380.382C380.452 404.079 380.79 404.528 381.397 404.726V401.962C380.487 401.729 379.758 401.501 379.21 401.28C378.674 401.058 378.201 400.703 377.793 400.213C377.385 399.723 377.181 399.052 377.181 398.201C377.181 397.14 377.572 396.289 378.353 395.647C379.146 395.006 380.161 394.644 381.397 394.563V393.146H382.516V394.563C383.741 394.656 384.709 395.012 385.42 395.63C386.132 396.248 386.528 397.105 386.61 398.201H383.408C383.338 397.571 383.041 397.163 382.516 396.977V399.688C383.484 399.956 384.231 400.195 384.755 400.405C385.28 400.615 385.747 400.965 386.155 401.455C386.575 401.933 386.785 402.592 386.785 403.431ZM380.347 398.061C380.347 398.353 380.435 398.598 380.61 398.796C380.796 398.994 381.059 399.169 381.397 399.321V396.889C381.07 396.947 380.814 397.076 380.627 397.274C380.441 397.461 380.347 397.723 380.347 398.061ZM382.516 404.778C382.866 404.72 383.14 404.58 383.338 404.359C383.548 404.137 383.653 403.863 383.653 403.536C383.653 403.233 383.554 402.988 383.356 402.802C383.169 402.603 382.89 402.434 382.516 402.294V404.778ZM390.811 400.143C389.715 399.56 389.167 398.644 389.167 397.396C389.167 396.767 389.33 396.195 389.657 395.682C389.983 395.157 390.479 394.743 391.144 394.44C391.809 394.125 392.625 393.968 393.593 393.968C394.561 393.968 395.371 394.125 396.024 394.44C396.689 394.743 397.185 395.157 397.511 395.682C397.838 396.195 398.001 396.767 398.001 397.396C398.001 398.026 397.849 398.574 397.546 399.041C397.255 399.507 396.858 399.875 396.357 400.143C396.986 400.446 397.47 400.866 397.809 401.402C398.147 401.927 398.316 402.545 398.316 403.257C398.316 404.085 398.106 404.802 397.686 405.408C397.266 406.003 396.695 406.458 395.972 406.773C395.26 407.087 394.467 407.245 393.593 407.245C392.718 407.245 391.919 407.087 391.196 406.773C390.485 406.458 389.919 406.003 389.5 405.408C389.08 404.802 388.87 404.085 388.87 403.257C388.87 402.533 389.039 401.91 389.377 401.385C389.715 400.848 390.193 400.434 390.811 400.143ZM395.097 397.851C395.097 397.373 394.957 397.006 394.677 396.749C394.409 396.481 394.048 396.347 393.593 396.347C393.138 396.347 392.771 396.481 392.491 396.749C392.223 397.017 392.088 397.391 392.088 397.869C392.088 398.324 392.228 398.685 392.508 398.953C392.788 399.21 393.15 399.338 393.593 399.338C394.036 399.338 394.398 399.204 394.677 398.936C394.957 398.668 395.097 398.306 395.097 397.851ZM393.593 401.437C393.045 401.437 392.602 401.589 392.263 401.892C391.925 402.184 391.756 402.592 391.756 403.117C391.756 403.606 391.919 404.009 392.246 404.324C392.584 404.638 393.033 404.796 393.593 404.796C394.153 404.796 394.59 404.638 394.905 404.324C395.231 404.009 395.395 403.606 395.395 403.117C395.395 402.603 395.226 402.195 394.887 401.892C394.561 401.589 394.129 401.437 393.593 401.437ZM400.055 400.44C400.055 398.434 400.44 396.854 401.21 395.7C401.991 394.545 403.245 393.968 404.971 393.968C406.697 393.968 407.945 394.545 408.714 395.7C409.496 396.854 409.886 398.434 409.886 400.44C409.886 402.469 409.496 404.061 408.714 405.216C407.945 406.37 406.697 406.948 404.971 406.948C403.245 406.948 401.991 406.37 401.21 405.216C400.44 404.061 400.055 402.469 400.055 400.44ZM406.948 400.44C406.948 399.262 406.819 398.359 406.563 397.729C406.306 397.087 405.775 396.767 404.971 396.767C404.166 396.767 403.636 397.087 403.379 397.729C403.122 398.359 402.994 399.262 402.994 400.44C402.994 401.233 403.041 401.892 403.134 402.417C403.227 402.93 403.414 403.35 403.694 403.676C403.985 403.991 404.411 404.149 404.971 404.149C405.531 404.149 405.95 403.991 406.23 403.676C406.522 403.35 406.714 402.93 406.808 402.417C406.901 401.892 406.948 401.233 406.948 400.44ZM411.467 400.44C411.467 398.434 411.852 396.854 412.621 395.7C413.403 394.545 414.656 393.968 416.382 393.968C418.108 393.968 419.356 394.545 420.126 395.7C420.907 396.854 421.298 398.434 421.298 400.44C421.298 402.469 420.907 404.061 420.126 405.216C419.356 406.37 418.108 406.948 416.382 406.948C414.656 406.948 413.403 406.37 412.621 405.216C411.852 404.061 411.467 402.469 411.467 400.44ZM418.359 400.44C418.359 399.262 418.231 398.359 417.974 397.729C417.717 397.087 417.187 396.767 416.382 396.767C415.577 396.767 415.047 397.087 414.79 397.729C414.534 398.359 414.405 399.262 414.405 400.44C414.405 401.233 414.452 401.892 414.545 402.417C414.639 402.93 414.825 403.35 415.105 403.676C415.397 403.991 415.822 404.149 416.382 404.149C416.942 404.149 417.362 403.991 417.642 403.676C417.933 403.35 418.126 402.93 418.219 402.417C418.312 401.892 418.359 401.233 418.359 400.44ZM430.295 407L426.167 401.577V407H423.175V394.72H426.167V400.108L430.26 394.72H433.776L429.018 400.738L433.951 407H430.295Z" fill="#AFECFF"></path><path opacity="0.5" d="M373.347 327L370.793 322.364H370.076V327H367.085V314.72H372.105C373.073 314.72 373.895 314.889 374.571 315.227C375.26 315.566 375.773 316.032 376.111 316.627C376.449 317.21 376.618 317.863 376.618 318.586C376.618 319.402 376.385 320.131 375.918 320.773C375.464 321.414 374.787 321.869 373.889 322.137L376.723 327H373.347ZM370.076 320.248H371.93C372.478 320.248 372.886 320.114 373.155 319.845C373.434 319.577 373.574 319.198 373.574 318.708C373.574 318.242 373.434 317.875 373.155 317.606C372.886 317.338 372.478 317.204 371.93 317.204H370.076V320.248ZM387.785 323.431C387.785 324.073 387.615 324.668 387.277 325.216C386.951 325.752 386.461 326.195 385.808 326.545C385.166 326.883 384.403 327.07 383.516 327.105V328.522H382.397V327.087C381.161 326.983 380.164 326.615 379.406 325.985C378.647 325.344 378.245 324.475 378.199 323.379H381.382C381.452 324.079 381.79 324.528 382.397 324.726V321.962C381.487 321.729 380.758 321.501 380.21 321.28C379.674 321.058 379.201 320.703 378.793 320.213C378.385 319.723 378.181 319.052 378.181 318.201C378.181 317.14 378.572 316.289 379.353 315.647C380.146 315.006 381.161 314.644 382.397 314.563V313.146H383.516V314.563C384.741 314.656 385.709 315.012 386.42 315.63C387.132 316.248 387.528 317.105 387.61 318.201H384.408C384.338 317.571 384.041 317.163 383.516 316.977V319.688C384.484 319.956 385.231 320.195 385.755 320.405C386.28 320.615 386.747 320.965 387.155 321.455C387.575 321.933 387.785 322.592 387.785 323.431ZM381.347 318.061C381.347 318.353 381.435 318.598 381.61 318.796C381.796 318.994 382.059 319.169 382.397 319.321V316.889C382.07 316.947 381.814 317.076 381.627 317.274C381.441 317.461 381.347 317.723 381.347 318.061ZM383.516 324.778C383.866 324.72 384.14 324.58 384.338 324.359C384.548 324.137 384.653 323.863 384.653 323.536C384.653 323.233 384.554 322.988 384.356 322.802C384.169 322.603 383.89 322.434 383.516 322.294V324.778ZM392.931 323.257C393.106 324.178 393.642 324.638 394.54 324.638C395.158 324.638 395.596 324.364 395.852 323.816C396.109 323.268 396.237 322.376 396.237 321.14C395.981 321.501 395.631 321.781 395.188 321.98C394.744 322.178 394.249 322.277 393.701 322.277C392.954 322.277 392.29 322.125 391.707 321.822C391.123 321.507 390.663 321.047 390.325 320.44C389.998 319.822 389.835 319.076 389.835 318.201C389.835 317.338 390.01 316.586 390.36 315.945C390.721 315.303 391.228 314.808 391.881 314.458C392.546 314.108 393.328 313.933 394.225 313.933C395.951 313.933 397.158 314.469 397.847 315.542C398.535 316.615 398.879 318.195 398.879 320.283C398.879 321.799 398.739 323.052 398.459 324.044C398.191 325.023 397.73 325.77 397.077 326.283C396.435 326.796 395.555 327.052 394.435 327.052C393.549 327.052 392.791 326.878 392.161 326.528C391.543 326.178 391.065 325.717 390.727 325.146C390.4 324.574 390.214 323.945 390.167 323.257H392.931ZM394.383 319.915C394.873 319.915 395.263 319.77 395.555 319.478C395.846 319.175 395.992 318.767 395.992 318.254C395.992 317.694 395.841 317.262 395.537 316.959C395.234 316.656 394.826 316.504 394.313 316.504C393.8 316.504 393.392 316.662 393.088 316.977C392.797 317.28 392.651 317.7 392.651 318.236C392.651 318.738 392.797 319.146 393.088 319.461C393.392 319.764 393.823 319.915 394.383 319.915ZM400.475 320.44C400.475 318.434 400.859 316.854 401.629 315.7C402.41 314.545 403.664 313.968 405.39 313.968C407.116 313.968 408.364 314.545 409.133 315.7C409.915 316.854 410.305 318.434 410.305 320.44C410.305 322.469 409.915 324.061 409.133 325.216C408.364 326.37 407.116 326.948 405.39 326.948C403.664 326.948 402.41 326.37 401.629 325.216C400.859 324.061 400.475 322.469 400.475 320.44ZM407.367 320.44C407.367 319.262 407.238 318.359 406.982 317.729C406.725 317.087 406.195 316.767 405.39 316.767C404.585 316.767 404.055 317.087 403.798 317.729C403.542 318.359 403.413 319.262 403.413 320.44C403.413 321.233 403.46 321.892 403.553 322.417C403.647 322.93 403.833 323.35 404.113 323.676C404.405 323.991 404.83 324.149 405.39 324.149C405.95 324.149 406.37 323.991 406.649 323.676C406.941 323.35 407.133 322.93 407.227 322.417C407.32 321.892 407.367 321.233 407.367 320.44ZM411.886 320.44C411.886 318.434 412.271 316.854 413.04 315.7C413.822 314.545 415.075 313.968 416.801 313.968C418.527 313.968 419.775 314.545 420.545 315.7C421.326 316.854 421.717 318.434 421.717 320.44C421.717 322.469 421.326 324.061 420.545 325.216C419.775 326.37 418.527 326.948 416.801 326.948C415.075 326.948 413.822 326.37 413.04 325.216C412.271 324.061 411.886 322.469 411.886 320.44ZM418.778 320.44C418.778 319.262 418.65 318.359 418.393 317.729C418.137 317.087 417.606 316.767 416.801 316.767C415.997 316.767 415.466 317.087 415.209 317.729C414.953 318.359 414.825 319.262 414.825 320.44C414.825 321.233 414.871 321.892 414.965 322.417C415.058 322.93 415.244 323.35 415.524 323.676C415.816 323.991 416.242 324.149 416.801 324.149C417.361 324.149 417.781 323.991 418.061 323.676C418.352 323.35 418.545 322.93 418.638 322.417C418.731 321.892 418.778 321.233 418.778 320.44ZM430.714 327L426.586 321.577V327H423.595V314.72H426.586V320.108L430.679 314.72H434.195L429.437 320.738L434.37 327H430.714Z" fill="#AFECFF"></path><path opacity="0.5" d="M396.347 247L393.793 242.364H393.076V247H390.085V234.72H395.105C396.073 234.72 396.895 234.889 397.571 235.227C398.26 235.566 398.773 236.032 399.111 236.627C399.449 237.21 399.618 237.863 399.618 238.586C399.618 239.402 399.385 240.131 398.918 240.773C398.464 241.414 397.787 241.869 396.889 242.137L399.723 247H396.347ZM393.076 240.248H394.93C395.478 240.248 395.886 240.114 396.155 239.845C396.434 239.577 396.574 239.198 396.574 238.708C396.574 238.242 396.434 237.875 396.155 237.606C395.886 237.338 395.478 237.204 394.93 237.204H393.076V240.248ZM410.785 243.431C410.785 244.073 410.615 244.668 410.277 245.216C409.951 245.752 409.461 246.195 408.808 246.545C408.166 246.883 407.403 247.07 406.516 247.105V248.522H405.397V247.087C404.161 246.983 403.164 246.615 402.406 245.985C401.647 245.344 401.245 244.475 401.199 243.379H404.382C404.452 244.079 404.79 244.528 405.397 244.726V241.962C404.487 241.729 403.758 241.501 403.21 241.28C402.674 241.058 402.201 240.703 401.793 240.213C401.385 239.723 401.181 239.052 401.181 238.201C401.181 237.14 401.572 236.289 402.353 235.647C403.146 235.006 404.161 234.644 405.397 234.563V233.146H406.516V234.563C407.741 234.656 408.709 235.012 409.42 235.63C410.132 236.248 410.528 237.105 410.61 238.201H407.408C407.338 237.571 407.041 237.163 406.516 236.977V239.688C407.484 239.956 408.231 240.195 408.755 240.405C409.28 240.615 409.747 240.965 410.155 241.455C410.575 241.933 410.785 242.592 410.785 243.431ZM404.347 238.061C404.347 238.353 404.435 238.598 404.61 238.796C404.796 238.994 405.059 239.169 405.397 239.321V236.889C405.07 236.947 404.814 237.076 404.627 237.274C404.441 237.461 404.347 237.723 404.347 238.061ZM406.516 244.778C406.866 244.72 407.14 244.58 407.338 244.359C407.548 244.137 407.653 243.863 407.653 243.536C407.653 243.233 407.554 242.988 407.356 242.802C407.169 242.603 406.89 242.434 406.516 242.294V244.778ZM412.397 237.012V234.23H417.243V247H414.129V237.012H412.397ZM433.493 234.72V247H430.502V239.636L427.756 247H425.342L422.578 239.618V247H419.587V234.72H423.12L426.566 243.222L429.977 234.72H433.493Z" fill="#AFECFF"></path><path opacity="0.5" d="M380.347 167L377.793 162.364H377.076V167H374.085V154.72H379.105C380.073 154.72 380.895 154.889 381.571 155.227C382.26 155.566 382.773 156.032 383.111 156.627C383.449 157.21 383.618 157.863 383.618 158.586C383.618 159.402 383.385 160.131 382.918 160.773C382.464 161.414 381.787 161.869 380.889 162.137L383.723 167H380.347ZM377.076 160.248H378.93C379.478 160.248 379.886 160.114 380.155 159.845C380.434 159.577 380.574 159.198 380.574 158.708C380.574 158.242 380.434 157.875 380.155 157.606C379.886 157.338 379.478 157.204 378.93 157.204H377.076V160.248ZM394.785 163.431C394.785 164.073 394.615 164.668 394.277 165.216C393.951 165.752 393.461 166.195 392.808 166.545C392.166 166.883 391.403 167.07 390.516 167.105V168.522H389.397V167.087C388.161 166.983 387.164 166.615 386.406 165.985C385.647 165.344 385.245 164.475 385.199 163.379H388.382C388.452 164.079 388.79 164.528 389.397 164.726V161.962C388.487 161.729 387.758 161.501 387.21 161.28C386.674 161.058 386.201 160.703 385.793 160.213C385.385 159.723 385.181 159.052 385.181 158.201C385.181 157.14 385.572 156.289 386.353 155.647C387.146 155.006 388.161 154.644 389.397 154.563V153.146H390.516V154.563C391.741 154.656 392.709 155.012 393.42 155.63C394.132 156.248 394.528 157.105 394.61 158.201H391.408C391.338 157.571 391.041 157.163 390.516 156.977V159.688C391.484 159.956 392.231 160.195 392.755 160.405C393.28 160.615 393.747 160.965 394.155 161.455C394.575 161.933 394.785 162.592 394.785 163.431ZM388.347 158.061C388.347 158.353 388.435 158.598 388.61 158.796C388.796 158.994 389.059 159.169 389.397 159.321V156.889C389.07 156.947 388.814 157.076 388.627 157.274C388.441 157.461 388.347 157.723 388.347 158.061ZM390.516 164.778C390.866 164.72 391.14 164.58 391.338 164.359C391.548 164.137 391.653 163.863 391.653 163.536C391.653 163.233 391.554 162.988 391.356 162.802C391.169 162.603 390.89 162.434 390.516 162.294V164.778ZM396.397 157.012V154.23H401.243V167H398.129V157.012H396.397ZM404.986 167.14C404.461 167.14 404.03 166.988 403.692 166.685C403.365 166.37 403.202 165.985 403.202 165.531C403.202 165.064 403.365 164.673 403.692 164.359C404.03 164.044 404.461 163.886 404.986 163.886C405.499 163.886 405.919 164.044 406.246 164.359C406.584 164.673 406.753 165.064 406.753 165.531C406.753 165.985 406.584 166.37 406.246 166.685C405.919 166.988 405.499 167.14 404.986 167.14ZM417.217 156.837H411.76V159.251C411.993 158.994 412.319 158.784 412.739 158.621C413.159 158.458 413.614 158.376 414.104 158.376C414.978 158.376 415.701 158.574 416.273 158.971C416.856 159.367 417.282 159.88 417.55 160.51C417.818 161.14 417.952 161.822 417.952 162.557C417.952 163.921 417.567 165.006 416.798 165.81C416.028 166.603 414.943 167 413.544 167C412.611 167 411.801 166.843 411.112 166.528C410.424 166.201 409.894 165.752 409.521 165.181C409.147 164.609 408.943 163.95 408.908 163.204H411.83C411.9 163.566 412.069 163.869 412.337 164.114C412.605 164.347 412.973 164.464 413.439 164.464C413.987 164.464 414.395 164.289 414.664 163.939C414.932 163.589 415.066 163.122 415.066 162.539C415.066 161.968 414.926 161.531 414.646 161.227C414.366 160.924 413.958 160.773 413.422 160.773C413.025 160.773 412.699 160.872 412.442 161.07C412.185 161.257 412.016 161.507 411.935 161.822H409.048V154.213H417.217V156.837ZM433.808 154.72V167H430.816V159.636L428.07 167H425.656L422.892 159.618V167H419.901V154.72H423.434L426.88 163.222L430.291 154.72H433.808Z" fill="#AFECFF"></path><path opacity="0.5" d="M378.347 967L375.793 962.364H375.076V967H372.085V954.72H377.105C378.073 954.72 378.895 954.889 379.571 955.227C380.26 955.566 380.773 956.032 381.111 956.627C381.449 957.21 381.618 957.863 381.618 958.586C381.618 959.402 381.385 960.131 380.918 960.773C380.464 961.414 379.787 961.869 378.889 962.137L381.723 967H378.347ZM375.076 960.248H376.93C377.478 960.248 377.886 960.114 378.155 959.845C378.434 959.577 378.574 959.198 378.574 958.708C378.574 958.242 378.434 957.875 378.155 957.606C377.886 957.338 377.478 957.204 376.93 957.204H375.076V960.248ZM392.785 963.431C392.785 964.073 392.615 964.668 392.277 965.216C391.951 965.752 391.461 966.195 390.808 966.545C390.166 966.883 389.403 967.07 388.516 967.105V968.522H387.397V967.087C386.161 966.983 385.164 966.615 384.406 965.985C383.647 965.344 383.245 964.475 383.199 963.379H386.382C386.452 964.079 386.79 964.528 387.397 964.726V961.962C386.487 961.729 385.758 961.501 385.21 961.28C384.674 961.058 384.201 960.703 383.793 960.213C383.385 959.723 383.181 959.052 383.181 958.201C383.181 957.14 383.572 956.289 384.353 955.647C385.146 955.006 386.161 954.644 387.397 954.563V953.146H388.516V954.563C389.741 954.656 390.709 955.012 391.42 955.63C392.132 956.248 392.528 957.105 392.61 958.201H389.408C389.338 957.571 389.041 957.163 388.516 956.977V959.688C389.484 959.956 390.231 960.195 390.755 960.405C391.28 960.615 391.747 960.965 392.155 961.455C392.575 961.933 392.785 962.592 392.785 963.431ZM386.347 958.061C386.347 958.353 386.435 958.598 386.61 958.796C386.796 958.994 387.059 959.169 387.397 959.321V956.889C387.07 956.947 386.814 957.076 386.627 957.274C386.441 957.461 386.347 957.723 386.347 958.061ZM388.516 964.778C388.866 964.72 389.14 964.58 389.338 964.359C389.548 964.137 389.653 963.863 389.653 963.536C389.653 963.233 389.554 962.988 389.356 962.802C389.169 962.603 388.89 962.434 388.516 962.294V964.778ZM394.397 957.012V954.23H399.243V967H396.129V957.012H394.397ZM401.289 960.44C401.289 958.434 401.674 956.854 402.444 955.7C403.225 954.545 404.479 953.968 406.205 953.968C407.931 953.968 409.178 954.545 409.948 955.7C410.73 956.854 411.12 958.434 411.12 960.44C411.12 962.469 410.73 964.061 409.948 965.216C409.178 966.37 407.931 966.948 406.205 966.948C404.479 966.948 403.225 966.37 402.444 965.216C401.674 964.061 401.289 962.469 401.289 960.44ZM408.181 960.44C408.181 959.262 408.053 958.359 407.797 957.729C407.54 957.087 407.009 956.767 406.205 956.767C405.4 956.767 404.869 957.087 404.613 957.729C404.356 958.359 404.228 959.262 404.228 960.44C404.228 961.233 404.275 961.892 404.368 962.417C404.461 962.93 404.648 963.35 404.928 963.676C405.219 963.991 405.645 964.149 406.205 964.149C406.764 964.149 407.184 963.991 407.464 963.676C407.756 963.35 407.948 962.93 408.041 962.417C408.135 961.892 408.181 961.233 408.181 960.44ZM412.701 960.44C412.701 958.434 413.085 956.854 413.855 955.7C414.636 954.545 415.89 953.968 417.616 953.968C419.342 953.968 420.59 954.545 421.36 955.7C422.141 956.854 422.532 958.434 422.532 960.44C422.532 962.469 422.141 964.061 421.36 965.216C420.59 966.37 419.342 966.948 417.616 966.948C415.89 966.948 414.636 966.37 413.855 965.216C413.085 964.061 412.701 962.469 412.701 960.44ZM419.593 960.44C419.593 959.262 419.464 958.359 419.208 957.729C418.951 957.087 418.421 956.767 417.616 956.767C416.811 956.767 416.281 957.087 416.024 957.729C415.768 958.359 415.639 959.262 415.639 960.44C415.639 961.233 415.686 961.892 415.779 962.417C415.873 962.93 416.059 963.35 416.339 963.676C416.631 963.991 417.056 964.149 417.616 964.149C418.176 964.149 418.596 963.991 418.876 963.676C419.167 963.35 419.359 962.93 419.453 962.417C419.546 961.892 419.593 961.233 419.593 960.44ZM430.374 967L427.401 962.907V967H424.409V954.055H427.401V961.21L430.357 957.239H434.048L429.989 962.137L434.083 967H430.374Z" fill="#AFECFF"></path><line opacity="0.1" y1="501.5" x2="1920" y2="501.5" stroke="#00C5FF" stroke-width="3"></line><line opacity="0.1" y1="421.5" x2="1920" y2="421.5" stroke="#00C5FF" stroke-width="3"></line><line opacity="0.1" y1="341.5" x2="1920" y2="341.5" stroke="#00C5FF" stroke-width="3"></line><line opacity="0.1" y1="261.5" x2="1920" y2="261.5" stroke="#00C5FF" stroke-width="3"></line><line opacity="0.1" y1="181.5" x2="1920" y2="181.5" stroke="#00C5FF" stroke-width="3"></line><line opacity="0.1" y1="101.5" x2="1920" y2="101.5" stroke="#00C5FF" stroke-width="3"></line><path d="M451.001 980L513.999 868L571.501 726.5L637 855.498L740.5 855.498L911 455.499L988 627.999L1154.5 522.499L1280 690.999L1363.5 690.999L1442.5 542.999L1517.5 498.498L1571 359.5" stroke="#00C5FF" stroke-width="5" stroke-linecap="round"></path><circle cx="514" cy="867" r="9.5" fill="#010C1D" stroke="#00C5FF" stroke-width="5"></circle><circle cx="572" cy="729" r="9.5" fill="#010C1D" stroke="#00C5FF" stroke-width="5"></circle><circle cx="638" cy="855" r="9.5" fill="#010C1D" stroke="#00C5FF" stroke-width="5"></circle><circle cx="741" cy="855" r="9.5" fill="#010C1D" stroke="#00C5FF" stroke-width="5"></circle><circle cx="911" cy="457" r="9.5" fill="#010C1D" stroke="#00C5FF" stroke-width="5"></circle><circle cx="987" cy="628" r="9.5" fill="#010C1D" stroke="#00C5FF" stroke-width="5"></circle><circle cx="1156" cy="524" r="9.5" fill="#010C1D" stroke="#00C5FF" stroke-width="5"></circle><circle cx="1281" cy="691" r="9.5" fill="#010C1D" stroke="#00C5FF" stroke-width="5"></circle><circle cx="1364" cy="691" r="9.5" fill="#010C1D" stroke="#00C5FF" stroke-width="5"></circle><circle cx="1442" cy="543" r="9.5" fill="#010C1D" stroke="#00C5FF" stroke-width="5"></circle><circle cx="1517" cy="498" r="9.5" fill="#010C1D" stroke="#00C5FF" stroke-width="5"></circle><circle cx="1572" cy="359" r="9.5" fill="#010C1D" stroke="#00C5FF" stroke-width="5"></circle></g></g><defs><linearGradient id="paint0_linear_2632_4" x1="1227.5" y1="236.499" x2="1233.5" y2="1632.5" gradientUnits="userSpaceOnUse"><stop stop-color="#00C5FF"></stop><stop offset="0.52224" stop-color="#010C1D"></stop><stop offset="1" stop-color="#010C1D"></stop></linearGradient><clipPath id="clip0_2632_4"><rect width="1920" height="1063" fill="white"></rect></clipPath><clipPath id="clip1_2632_4"><rect width="1935" height="1030" fill="white" transform="translate(0 57)"></rect></clipPath></defs></svg>