<svg xmlns="http://www.w3.org/2000/svg" width="800" height="858" viewBox="0 0 800 858" fill="none"><g clip-path="url(#clip0_2650_4)"><g clip-path="url(#clip1_2650_4)"><path d="M239.387 537.563L219.304 573.267L219.304 857L581 857L581 373L559.287 419.772L535.378 433.958L510.194 481.138L483.576 481.138L443.568 427.423L390.491 461.055L365.944 406.064L311.592 533.578L278.597 533.578L257.717 492.455L239.387 537.563Z" fill="url(#paint0_linear_2650_4)"></path><path d="M219.304 573.268L239.387 537.564L257.718 492.456L278.598 533.578L311.592 533.578L365.945 406.065L390.491 461.055L443.569 427.423L483.576 481.138L510.194 481.138L535.379 433.958L559.288 419.772L581 373" stroke="#00C5FF" stroke-width="3" stroke-linecap="round"></path><line opacity="0.1" x1="-3" y1="777" x2="803" y2="777" stroke="#00C5FF" stroke-width="2"></line><line opacity="0.1" x1="-3" y1="697" x2="803" y2="697" stroke="#00C5FF" stroke-width="2"></line><line opacity="0.1" x1="-3" y1="617" x2="803" y2="617" stroke="#00C5FF" stroke-width="2"></line><line opacity="0.1" x1="-3" y1="537" x2="803" y2="537" stroke="#00C5FF" stroke-width="2"></line><line opacity="0.1" x1="-3" y1="457" x2="803" y2="457" stroke="#00C5FF" stroke-width="2"></line><line opacity="0.1" x1="-3" y1="377" x2="803" y2="377" stroke="#00C5FF" stroke-width="2"></line><line opacity="0.1" x1="-3" y1="297" x2="803" y2="297" stroke="#00C5FF" stroke-width="2"></line><line opacity="0.1" x1="-3" y1="217" x2="803" y2="217" stroke="#00C5FF" stroke-width="2"></line><line opacity="0.1" x1="-3" y1="137" x2="803" y2="137" stroke="#00C5FF" stroke-width="2"></line><line opacity="0.1" x1="-3" y1="57" x2="803" y2="57" stroke="#00C5FF" stroke-width="2"></line><circle cx="258" cy="493" r="6.5" fill="#010C1D" stroke="#00C5FF" stroke-width="3"></circle><circle cx="239" cy="538" r="6.5" fill="#010C1D" stroke="#00C5FF" stroke-width="3"></circle><circle cx="280" cy="533" r="6.5" fill="#010C1D" stroke="#00C5FF" stroke-width="3"></circle><circle cx="312" cy="533" r="6.5" fill="#010C1D" stroke="#00C5FF" stroke-width="3"></circle><circle cx="366" cy="407" r="6.5" fill="#010C1D" stroke="#00C5FF" stroke-width="3"></circle><circle cx="391" cy="460" r="6.5" fill="#010C1D" stroke="#00C5FF" stroke-width="3"></circle><circle cx="444" cy="428" r="6.5" fill="#010C1D" stroke="#00C5FF" stroke-width="3"></circle><circle cx="485" cy="482" r="6.5" fill="#010C1D" stroke="#00C5FF" stroke-width="3"></circle><circle cx="510" cy="482" r="6.5" fill="#010C1D" stroke="#00C5FF" stroke-width="3"></circle><circle cx="535" cy="435" r="6.5" fill="#010C1D" stroke="#00C5FF" stroke-width="3"></circle><circle cx="558" cy="420" r="6.5" fill="#010C1D" stroke="#00C5FF" stroke-width="3"></circle></g></g><defs><linearGradient id="paint0_linear_2650_4" x1="389.5" y1="325" x2="389.5" y2="1046.5" gradientUnits="userSpaceOnUse"><stop stop-color="#00C5FF"></stop><stop offset="0.6" stop-color="#010C1D"></stop><stop offset="1" stop-color="#010C1D"></stop></linearGradient><clipPath id="clip0_2650_4"><rect width="800" height="858" fill="white"></rect></clipPath><clipPath id="clip1_2650_4"><rect width="800" height="858" fill="white"></rect></clipPath></defs></svg>