<svg xmlns="http://www.w3.org/2000/svg" width="250" height="250" viewBox="0 0 250 250" fill="none"><style>	#texto-garantia {		animation: texto-garantia 10s linear infinite;		transform-origin: center;	}	@keyframes texto-garantia{		0%{			transform: rotate(0deg);		}		100% {			transform: rotate(360deg);		}	}</style><g id="icone-garantia"><path id="Vector" d="M124.924 204.609C169.107 204.609 204.924 168.792 204.924 124.609C204.924 80.4266 169.107 44.6094 124.924 44.6094C80.741 44.6094 44.9238 80.4266 44.9238 124.609C44.9238 168.792 80.741 204.609 124.924 204.609Z" fill="url(#paint0_radial_2114_2840)"></path><path id="Vector_2" d="M172.844 118.289L166.024 110.369C164.724 108.869 163.664 106.059 163.664 104.049V95.5292C163.664 90.2192 159.304 85.8492 153.984 85.8492H145.454C143.494 85.8492 140.634 84.7992 139.134 83.4892L131.214 76.6692C127.754 73.7092 122.084 73.7092 118.574 76.6692L110.704 83.5392C109.204 84.7892 106.344 85.8492 104.384 85.8492H95.7042C90.3842 85.8492 86.0242 90.2092 86.0242 95.5292V104.099C86.0242 106.059 84.9742 108.859 83.7142 110.369L76.9442 118.339C74.0342 121.799 74.0342 127.419 76.9442 130.879L83.7142 138.849C84.9642 140.349 86.0242 143.159 86.0242 145.119V153.689C86.0242 158.999 90.3842 163.369 95.7042 163.369H104.384C106.344 163.369 109.204 164.419 110.704 165.729L118.624 172.549C122.084 175.509 127.754 175.509 131.264 172.549L139.184 165.729C140.684 164.429 143.494 163.369 145.504 163.369H154.034C159.354 163.369 163.714 159.009 163.714 153.689V145.169C163.714 143.209 164.764 140.359 166.074 138.849L172.894 130.929C175.804 127.469 175.804 121.749 172.844 118.289ZM145.764 115.129L121.534 139.349C120.824 140.049 119.874 140.449 118.874 140.449C117.874 140.449 116.924 140.049 116.214 139.349L104.074 127.219C102.624 125.769 102.624 123.359 104.074 121.909C105.524 120.459 107.934 120.459 109.394 121.909L118.874 131.389L140.444 109.829C141.894 108.379 144.304 108.379 145.764 109.829C147.214 111.279 147.214 113.689 145.764 115.139V115.129Z" fill="#F0F0F0"></path><g id="texto-garantia"><path id="7" d="M52.884 82.3456L48.4469 74.9178L48.3893 74.8814L45.9827 78.6838L45.1906 78.1824L48.1806 73.4582L49.0159 73.9869L53.4765 81.4094L52.884 82.3456Z" fill="#F0F0F0"></path><path id="D" d="M60.8387 71.075L59.0764 73.1116L52.4769 67.4009L54.3172 65.2741C54.8712 64.6339 55.4773 64.2004 56.1357 63.9737C56.7919 63.745 57.471 63.7222 58.173 63.9051C58.8729 64.0862 59.5644 64.4723 60.2475 65.0634C60.935 65.6583 61.4209 66.2929 61.7052 66.9672C61.9874 67.6397 62.059 68.3253 61.9202 69.0241C61.7792 69.7211 61.4187 70.4047 60.8387 71.075ZM59.059 71.699L60.0851 70.5131C60.5573 69.9674 60.8434 69.4241 60.9433 68.8832C61.0432 68.3423 60.9749 67.8155 60.7385 67.3029C60.5021 66.7902 60.1154 66.3015 59.5783 65.8368C59.0455 65.3758 58.5116 65.0659 57.9765 64.9072C57.4392 64.7466 56.9178 64.75 56.4123 64.9174C55.9046 65.083 55.4277 65.4235 54.9816 65.9391L53.8774 67.2152L59.059 71.699Z" fill="#F0F0F0"></path><path id="I" d="M60.7205 58.3986L66.8168 64.6436L66.0606 65.3818L59.9642 59.1368L60.7205 58.3986Z" fill="#F0F0F0"></path><path id="A" d="M68.9021 62.5847L68.0502 63.293L64.9349 54.5335L65.7738 53.836L73.8173 58.4982L72.9654 59.2065L66.2632 55.2246L66.2108 55.2682L68.9021 62.5847ZM67.0373 59.7017L70.4713 56.8466L71.0707 57.5675L67.6366 60.4226L67.0373 59.7017Z" fill="#F0F0F0"></path><path id="S" d="M76.3519 48.7582C76.069 48.428 75.7101 48.265 75.2752 48.2692C74.8403 48.2734 74.4034 48.4226 73.9644 48.7168C73.6435 48.9319 73.3974 49.172 73.2263 49.4372C73.0575 49.7008 72.9668 49.9685 72.9541 50.2403C72.9437 50.5106 73.016 50.7614 73.171 50.9927C73.3007 51.1862 73.4582 51.3217 73.6436 51.3993C73.8297 51.4729 74.0268 51.5067 74.2348 51.5007C74.4412 51.4923 74.6444 51.4638 74.8444 51.4153C75.0428 51.3643 75.2212 51.3115 75.3794 51.2568L76.2486 50.9615C76.4706 50.8846 76.7265 50.8122 77.0163 50.7445C77.3084 50.6753 77.6113 50.645 77.9249 50.6537C78.2393 50.6584 78.5444 50.731 78.8403 50.8713C79.1361 51.0116 79.3979 51.2517 79.6256 51.5915C79.8882 51.9832 80.0227 52.406 80.0294 52.8599C80.0383 53.3121 79.9094 53.7627 79.6426 54.2117C79.3782 54.6591 78.9675 55.0694 78.4106 55.4427C77.8914 55.7907 77.3857 56.0082 76.8934 56.0953C76.4035 56.1808 75.9496 56.1464 75.5316 55.9922C75.116 55.8364 74.7612 55.5698 74.4672 55.1923L75.3734 54.585C75.5804 54.8429 75.8243 55.0078 76.105 55.0796C76.3864 55.1475 76.6803 55.142 76.9866 55.0633C77.2937 54.9806 77.5912 54.8427 77.8791 54.6498C78.2143 54.4252 78.4788 54.1693 78.6727 53.882C78.865 53.5923 78.9734 53.2974 78.9979 52.9971C79.0208 52.6945 78.9437 52.411 78.7665 52.1467C78.6052 51.906 78.4067 51.7552 78.1709 51.6943C77.9352 51.6334 77.676 51.6294 77.3932 51.682C77.1105 51.7347 76.818 51.8111 76.5156 51.9111L75.4528 52.2541C74.7773 52.4708 74.1731 52.5389 73.6403 52.4583C73.1074 52.3776 72.6773 52.093 72.3499 51.6045C72.0779 51.1986 71.9504 50.7711 71.9674 50.3219C71.9852 49.8688 72.1244 49.4336 72.3849 49.0161C72.6463 48.5947 73.0082 48.229 73.4708 47.919C73.9381 47.6059 74.4095 47.4113 74.8853 47.3353C75.3594 47.2569 75.7992 47.2905 76.2045 47.436C76.6122 47.58 76.9446 47.831 77.2015 48.1888L76.3519 48.7582Z" fill="#F0F0F0"></path><path id="G" d="M104.722 37.3784C104.56 37.1236 104.376 36.9051 104.171 36.7229C103.969 36.5373 103.745 36.392 103.501 36.2872C103.26 36.1817 103.001 36.1204 102.724 36.1032C102.447 36.0861 102.156 36.1166 101.85 36.1947C101.349 36.3228 100.927 36.5686 100.583 36.9321C100.239 37.2957 100.01 37.7603 99.8969 38.3259C99.7834 38.8915 99.8203 39.5404 100.007 40.2725C100.195 41.0046 100.475 41.5912 100.849 42.0323C101.223 42.4734 101.652 42.7698 102.136 42.9216C102.621 43.0733 103.124 43.0824 103.647 42.9487C104.132 42.8249 104.532 42.6126 104.848 42.3119C105.166 42.0077 105.38 41.6393 105.489 41.2067C105.601 40.7707 105.59 40.2939 105.458 39.7764L105.788 39.7623L103.245 40.4124L103.013 39.5042L106.233 38.6809L106.466 39.5892C106.644 40.2856 106.65 40.9291 106.484 41.5198C106.321 42.1098 106.016 42.613 105.568 43.0295C105.122 43.4425 104.564 43.7349 103.892 43.9065C103.144 44.0979 102.441 44.0899 101.784 43.8826C101.129 43.6745 100.561 43.2862 100.078 42.7175C99.5985 42.1482 99.2446 41.4176 99.0166 40.5258C98.8456 39.857 98.7813 39.2327 98.8237 38.653C98.8682 38.0699 99.0073 37.5475 99.2412 37.086C99.4751 36.6245 99.7921 36.2356 100.192 35.9193C100.592 35.6029 101.063 35.3755 101.605 35.2369C102.051 35.1229 102.484 35.0841 102.904 35.1204C103.326 35.1533 103.72 35.2536 104.085 35.4211C104.452 35.5852 104.781 35.8105 105.071 36.097C105.361 36.3807 105.597 36.7178 105.779 37.1082L104.722 37.3784Z" fill="#F0F0F0"></path><path id="A_2" d="M110.527 42.2528L109.429 42.3999L111.446 33.3244L112.527 33.1796L116.862 41.4041L115.764 41.5512L112.204 34.6159L112.136 34.625L110.527 42.2528ZM110.48 38.8196L114.906 38.2266L115.03 39.1558L110.604 39.7488L110.48 38.8196Z" fill="#F0F0F0"></path><path id="R" d="M119.62 41.1623L119.396 32.4379L122.344 32.3622C123.026 32.3448 123.588 32.4468 124.032 32.6685C124.475 32.8873 124.807 33.1957 125.027 33.5935C125.248 33.9914 125.365 34.4474 125.378 34.9614C125.391 35.4755 125.298 35.934 125.098 36.337C124.898 36.7399 124.583 37.0606 124.155 37.299C123.726 37.5345 123.174 37.6609 122.498 37.6782L120.112 37.7395L120.088 36.7852L122.439 36.7249C122.905 36.7129 123.278 36.6352 123.558 36.4915C123.842 36.3479 124.044 36.1494 124.166 35.8962C124.29 35.6401 124.347 35.3374 124.338 34.9881C124.329 34.6388 124.256 34.3352 124.119 34.0772C123.982 33.8193 123.768 33.623 123.477 33.4884C123.187 33.3509 122.806 33.2882 122.334 33.3003L120.477 33.348L120.677 41.1352L119.62 41.1623ZM123.626 37.1378L125.874 41.0018L124.647 41.0333L122.433 37.1684L123.626 37.1378Z" fill="#F0F0F0"></path><path id="A_3" d="M128.395 41.0466L127.291 40.9549L131.207 32.523L132.294 32.6133L134.765 41.576L133.661 41.4842L131.67 33.9469L131.602 33.9412L128.395 41.0466ZM129.085 37.6831L133.535 38.053L133.458 38.9872L129.007 38.6174L129.085 37.6831Z" fill="#F0F0F0"></path><path id="N" d="M146.016 34.7231L144.271 43.2742L143.269 43.0698L139.979 35.4052L139.896 35.3882L138.526 42.1022L137.49 41.891L139.235 33.3398L140.237 33.5442L143.54 41.2289L143.624 41.2459L144.997 34.5152L146.016 34.7231Z" fill="#F0F0F0"></path><path id="T" d="M149.389 36.5335L149.673 35.6401L155.911 37.6247L155.626 38.5181L153.011 37.686L150.649 45.1091L149.642 44.7886L152.004 37.3655L149.389 36.5335Z" fill="#F0F0F0"></path><path id="I_2" d="M159.068 38.8693L155.861 46.9859L154.878 46.5976L158.085 38.4809L159.068 38.8693Z" fill="#F0F0F0"></path><path id="A_4" d="M158.556 48.0409L157.56 47.5543L164.272 41.121L165.252 41.6L164.299 50.848L163.303 50.3614L164.186 42.6159L164.125 42.5859L158.556 48.0409ZM160.421 45.1578L164.433 47.119L164.021 47.9613L160.009 46.0001L160.421 45.1578Z" fill="#F0F0F0"></path><path id="I_3" d="M175.199 47.1987L170.471 54.5345L169.583 53.962L174.311 46.6262L175.199 47.1987Z" fill="#F0F0F0"></path><path id="N_2" d="M183.469 53.1892L178.146 60.1056L177.336 59.4819L177.746 51.1511L177.678 51.0991L173.499 56.5295L172.662 55.885L177.984 48.9686L178.795 49.5924L178.388 57.9471L178.455 57.999L182.645 52.5551L183.469 53.1892Z" fill="#F0F0F0"></path><path id="C" d="M189.9 62.8162L189.142 62.0798C189.309 61.8182 189.416 61.5505 189.465 61.2766C189.515 61.0046 189.515 60.7354 189.465 60.4689C189.419 60.2024 189.328 59.9476 189.192 59.7044C189.055 59.4613 188.884 59.2388 188.676 59.0369C188.297 58.6687 187.86 58.4309 187.366 58.3235C186.875 58.2182 186.357 58.2638 185.813 58.4605C185.272 58.6593 184.738 59.0296 184.211 59.5717C183.685 60.1137 183.33 60.6583 183.147 61.2054C182.966 61.7544 182.936 62.2732 183.055 62.7617C183.177 63.2521 183.427 63.6815 183.806 64.0496C184.014 64.2516 184.241 64.417 184.488 64.546C184.735 64.6751 184.992 64.7597 185.257 64.8001C185.527 64.8404 185.797 64.8314 186.068 64.7733C186.342 64.7151 186.607 64.5997 186.861 64.4273L187.619 65.1637C187.251 65.4282 186.869 65.6135 186.473 65.7197C186.077 65.8259 185.681 65.8587 185.284 65.8183C184.89 65.7758 184.509 65.6648 184.14 65.4853C183.774 65.3078 183.433 65.0656 183.117 64.7588C182.583 64.2401 182.235 63.6485 182.073 62.9838C181.911 62.3192 181.944 61.6306 182.173 60.9181C182.401 60.2056 182.836 59.5192 183.478 58.859C184.119 58.1988 184.793 57.744 185.498 57.4948C186.204 57.2455 186.891 57.1923 187.56 57.3353C188.229 57.4783 188.831 57.8091 189.365 58.3277C189.68 58.6346 189.932 58.9684 190.12 59.3293C190.31 59.6922 190.431 60.0712 190.483 60.4662C190.537 60.8592 190.517 61.2553 190.422 61.6544C190.33 62.0516 190.155 62.4388 189.9 62.8162Z" fill="#F0F0F0"></path><path id="O" d="M194.902 71.2176C194.19 71.8001 193.469 72.1749 192.739 72.3418C192.01 72.5087 191.321 72.4829 190.673 72.2643C190.024 72.0457 189.465 71.6482 188.993 71.0719C188.522 70.4956 188.244 69.868 188.159 69.1891C188.074 68.5103 188.186 67.83 188.494 67.1484C188.803 66.4667 189.314 65.8347 190.027 65.2521C190.739 64.6696 191.46 64.2949 192.19 64.128C192.919 63.9611 193.608 63.9869 194.257 64.2055C194.905 64.4241 195.465 64.8216 195.936 65.3979C196.407 65.9742 196.685 66.6018 196.77 67.2807C196.855 67.9595 196.743 68.6398 196.435 69.3214C196.126 70.0031 195.615 70.6351 194.902 71.2176ZM194.255 70.4258C194.84 69.9475 195.254 69.446 195.497 68.9213C195.741 68.3987 195.831 67.8868 195.766 67.3857C195.703 66.8867 195.505 66.4327 195.17 66.0236C194.836 65.6144 194.429 65.3283 193.951 65.1651C193.475 65.0042 192.955 64.9903 192.393 65.1235C191.832 65.259 191.259 65.5658 190.674 66.044C190.089 66.5223 189.674 67.0227 189.43 67.5452C189.187 68.07 189.097 68.5819 189.16 69.0808C189.225 69.582 189.425 70.0371 189.759 70.4462C190.093 70.8554 190.499 71.1404 190.975 71.3014C191.453 71.4645 191.973 71.4784 192.534 71.343C193.096 71.2097 193.67 70.904 194.255 70.4258Z" fill="#F0F0F0"></path><path id="N_3" d="M204.604 77.8831L197.206 82.5131L196.664 81.6461L199.949 73.9796L199.904 73.9074L194.096 77.5426L193.535 76.6467L200.933 72.0168L201.475 72.8838L198.185 80.5738L198.23 80.646L204.053 77.0017L204.604 77.8831Z" fill="#F0F0F0"></path><path id="D_2" d="M199.997 87.8086L198.86 85.3674L206.771 81.6818L207.958 84.2312C208.316 84.9986 208.464 85.7291 208.401 86.4226C208.341 87.1149 208.084 87.7439 207.63 88.3096C207.179 88.8742 206.543 89.3472 205.724 89.7287C204.9 90.1126 204.123 90.2963 203.391 90.2799C202.662 90.2623 202.007 90.0471 201.426 89.6345C200.848 89.2207 200.371 88.6121 199.997 87.8086ZM200.156 85.9294L200.818 87.3509C201.123 88.005 201.502 88.4883 201.954 88.8008C202.407 89.1132 202.916 89.2665 203.48 89.2605C204.045 89.2545 204.649 89.1016 205.293 88.8016C205.931 88.5041 206.432 88.1437 206.796 87.7203C207.163 87.2958 207.373 86.8186 207.427 86.2889C207.483 85.7579 207.368 85.1834 207.08 84.5653L206.367 83.0357L200.156 85.9294Z" fill="#F0F0F0"></path><path id="I_4" d="M211.657 92.9871L203.428 95.8931L203.076 94.8966L211.305 91.9906L211.657 92.9871Z" fill="#F0F0F0"></path><path id="C_2" d="M212.053 103.411L211.763 102.395C212.038 102.251 212.265 102.073 212.443 101.859C212.622 101.648 212.756 101.415 212.846 101.159C212.939 100.905 212.987 100.639 212.99 100.36C212.993 100.081 212.955 99.8028 212.875 99.5242C212.73 99.0161 212.47 98.5925 212.096 98.2534C211.722 97.9169 211.25 97.6986 210.681 97.5982C210.112 97.5006 209.465 97.5556 208.738 97.7631C208.012 97.9706 207.433 98.266 207.001 98.6492C206.571 99.035 206.286 99.4695 206.146 99.9526C206.007 100.438 206.01 100.935 206.155 101.444C206.235 101.722 206.35 101.979 206.499 102.214C206.649 102.449 206.829 102.65 207.04 102.817C207.254 102.987 207.492 103.114 207.756 103.198C208.022 103.284 208.309 103.316 208.616 103.293L208.906 104.31C208.455 104.356 208.032 104.326 207.635 104.221C207.239 104.115 206.879 103.946 206.556 103.714C206.235 103.48 205.96 103.194 205.73 102.855C205.501 102.518 205.326 102.138 205.205 101.715C205 100.999 204.993 100.313 205.184 99.6558C205.374 98.9986 205.746 98.4182 206.3 97.9145C206.853 97.4107 207.572 97.0325 208.457 96.7797C209.342 96.5269 210.153 96.4683 210.889 96.6037C211.625 96.7392 212.247 97.0357 212.756 97.4931C213.265 97.9505 213.622 98.537 213.826 99.2527C213.947 99.6761 213.999 100.091 213.982 100.498C213.966 100.907 213.882 101.296 213.73 101.664C213.581 102.032 213.366 102.365 213.085 102.664C212.807 102.962 212.463 103.211 212.053 103.411Z" fill="#F0F0F0"></path><path id="I_5" d="M215.439 106.378L206.889 108.13L206.677 107.095L215.227 105.343L215.439 106.378Z" fill="#F0F0F0"></path><path id="O_2" d="M212.659 117.411C211.744 117.517 210.935 117.443 210.231 117.191C209.526 116.938 208.96 116.544 208.532 116.011C208.104 115.477 207.847 114.84 207.762 114.101C207.676 113.362 207.78 112.683 208.074 112.065C208.369 111.448 208.83 110.935 209.458 110.528C210.085 110.12 210.856 109.864 211.771 109.758C212.685 109.651 213.494 109.725 214.198 109.978C214.903 110.231 215.469 110.624 215.897 111.158C216.325 111.691 216.582 112.328 216.668 113.067C216.753 113.807 216.649 114.485 216.355 115.103C216.06 115.72 215.599 116.233 214.972 116.64C214.344 117.048 213.573 117.305 212.659 117.411ZM212.541 116.395C213.291 116.308 213.91 116.109 214.398 115.797C214.885 115.489 215.237 115.107 215.453 114.65C215.669 114.196 215.747 113.706 215.686 113.181C215.625 112.656 215.437 112.196 215.122 111.801C214.808 111.408 214.378 111.117 213.832 110.925C213.287 110.737 212.639 110.686 211.888 110.773C211.138 110.861 210.519 111.058 210.031 111.366C209.544 111.678 209.192 112.06 208.976 112.514C208.76 112.971 208.683 113.462 208.744 113.987C208.805 114.512 208.992 114.971 209.307 115.363C209.621 115.758 210.051 116.05 210.597 116.239C211.142 116.43 211.79 116.482 212.541 116.395Z" fill="#F0F0F0"></path><path id="N_4" d="M217.236 128.28L208.51 128.187L208.52 127.164L215.423 122.482L215.424 122.397L208.572 122.324L208.583 121.267L217.31 121.36L217.299 122.382L210.379 127.082L210.378 127.167L217.247 127.24L217.236 128.28Z" fill="#F0F0F0"></path><path id="A_5" d="M208.293 131.822L208.435 130.724L216.678 135.024L216.538 136.106L207.471 138.161L207.613 137.063L215.234 135.421L215.243 135.354L208.293 131.822ZM211.621 132.667L211.046 137.095L210.117 136.975L210.691 132.546L211.621 132.667Z" fill="#F0F0F0"></path><path id="L" d="M206.963 140.899L215.461 142.886L215.221 143.915L207.635 142.141L206.712 146.091L205.799 145.878L206.963 140.899Z" fill="#F0F0F0"></path><path id="7_2" d="M197.453 166.259L201.951 173.65L202.008 173.686L204.384 169.864L205.18 170.358L202.229 175.107L201.389 174.585L196.868 167.2L197.453 166.259Z" fill="#F0F0F0"></path><path id="D_3" d="M189.616 177.567L191.36 175.515L198.01 181.168L196.188 183.311C195.639 183.956 195.037 184.394 194.381 184.627C193.727 184.861 193.048 184.89 192.344 184.713C191.643 184.538 190.948 184.158 190.26 183.573C189.567 182.984 189.076 182.354 188.785 181.682C188.497 181.012 188.42 180.327 188.552 179.627C188.687 178.929 189.042 178.242 189.616 177.567ZM191.39 176.927L190.374 178.122C189.907 178.672 189.626 179.218 189.531 179.759C189.435 180.301 189.508 180.827 189.749 181.338C189.99 181.848 190.381 182.334 190.922 182.794C191.459 183.25 191.995 183.555 192.532 183.709C193.071 183.865 193.592 183.857 194.096 183.686C194.602 183.516 195.076 183.171 195.518 182.651L196.611 181.366L191.39 176.927Z" fill="#F0F0F0"></path><path id="I_6" d="M189.835 190.251L183.685 184.058L184.435 183.314L190.585 189.506L189.835 190.251Z" fill="#F0F0F0"></path><path id="A_6" d="M181.605 186.143L182.451 185.427L185.641 194.16L184.808 194.864L176.725 190.271L177.571 189.556L184.307 193.48L184.359 193.436L181.605 186.143ZM183.495 189.01L180.085 191.894L179.48 191.178L182.889 188.294L183.495 189.01Z" fill="#F0F0F0"></path><path id="S_2" d="M174.257 200.053C174.543 200.38 174.903 200.541 175.338 200.533C175.772 200.525 176.208 200.372 176.645 200.074C176.964 199.857 177.208 199.615 177.377 199.348C177.543 199.083 177.632 198.815 177.643 198.543C177.651 198.272 177.576 198.022 177.419 197.792C177.288 197.6 177.13 197.465 176.944 197.389C176.757 197.317 176.559 197.285 176.352 197.293C176.145 197.303 175.942 197.333 175.743 197.383C175.545 197.436 175.367 197.49 175.209 197.546L174.342 197.848C174.121 197.927 173.866 198.002 173.576 198.072C173.285 198.143 172.982 198.176 172.668 198.17C172.354 198.168 172.048 198.098 171.751 197.96C171.454 197.822 171.191 197.584 170.96 197.246C170.694 196.857 170.556 196.435 170.546 195.981C170.533 195.529 170.658 195.077 170.922 194.626C171.182 194.177 171.59 193.763 172.144 193.385C172.66 193.033 173.164 192.811 173.655 192.72C174.144 192.631 174.599 192.661 175.018 192.812C175.435 192.964 175.792 193.228 176.089 193.603L175.188 194.218C174.978 193.962 174.733 193.799 174.452 193.729C174.17 193.664 173.876 193.672 173.571 193.753C173.264 193.838 172.968 193.978 172.681 194.174C172.348 194.401 172.086 194.659 171.894 194.948C171.704 195.239 171.598 195.535 171.576 195.835C171.556 196.138 171.635 196.421 171.815 196.684C171.978 196.923 172.178 197.073 172.414 197.131C172.65 197.19 172.909 197.192 173.192 197.137C173.474 197.082 173.766 197.004 174.067 196.901L175.127 196.549C175.801 196.327 176.405 196.254 176.938 196.33C177.472 196.407 177.904 196.688 178.235 197.173C178.511 197.577 178.642 198.004 178.629 198.453C178.614 198.906 178.479 199.343 178.222 199.762C177.964 200.186 177.605 200.554 177.145 200.868C176.68 201.185 176.21 201.384 175.735 201.463C175.262 201.546 174.822 201.516 174.415 201.373C174.006 201.233 173.672 200.985 173.412 200.629L174.257 200.053Z" fill="#F0F0F0"></path><path id="G_2" d="M145.989 211.657C146.153 211.91 146.339 212.127 146.545 212.307C146.749 212.491 146.974 212.635 147.219 212.738C147.46 212.841 147.72 212.9 147.997 212.915C148.274 212.93 148.565 212.897 148.87 212.817C149.37 212.684 149.791 212.435 150.132 212.069C150.473 211.702 150.697 211.236 150.806 210.669C150.915 210.103 150.873 209.454 150.68 208.724C150.486 207.993 150.201 207.409 149.824 206.971C149.447 206.533 149.015 206.24 148.529 206.092C148.044 205.945 147.54 205.94 147.018 206.078C146.535 206.205 146.136 206.421 145.823 206.724C145.507 207.031 145.296 207.401 145.19 207.835C145.083 208.272 145.097 208.748 145.234 209.265L144.903 209.281L147.441 208.61L147.68 209.517L144.467 210.366L144.227 209.46C144.044 208.765 144.032 208.122 144.193 207.53C144.351 206.938 144.652 206.433 145.097 206.013C145.539 205.596 146.095 205.299 146.765 205.122C147.512 204.924 148.215 204.927 148.874 205.128C149.53 205.331 150.102 205.715 150.589 206.28C151.073 206.845 151.433 207.573 151.668 208.462C151.845 209.13 151.914 209.754 151.877 210.334C151.837 210.917 151.702 211.441 151.472 211.904C151.242 212.367 150.928 212.759 150.531 213.078C150.133 213.398 149.664 213.629 149.123 213.772C148.678 213.89 148.246 213.932 147.825 213.9C147.403 213.87 147.009 213.773 146.642 213.609C146.273 213.447 145.943 213.225 145.65 212.941C145.358 212.659 145.12 212.324 144.935 211.935L145.989 211.657Z" fill="#F0F0F0"></path><path id="A_7" d="M140.133 206.829L141.23 206.673L139.287 215.764L138.207 215.918L133.805 207.729L134.902 207.573L138.519 214.479L138.586 214.47L140.133 206.829ZM140.208 210.262L135.787 210.891L135.655 209.963L140.076 209.333L140.208 210.262Z" fill="#F0F0F0"></path><path id="R_2" d="M131.078 207.986L131.375 216.708L128.428 216.809C127.747 216.832 127.184 216.735 126.738 216.517C126.293 216.302 125.959 215.996 125.735 215.6C125.511 215.204 125.39 214.749 125.373 214.235C125.355 213.721 125.445 213.262 125.642 212.857C125.838 212.453 126.15 212.129 126.576 211.887C127.003 211.648 127.555 211.517 128.23 211.494L130.615 211.413L130.648 212.367L128.297 212.447C127.831 212.463 127.459 212.544 127.179 212.69C126.897 212.836 126.697 213.036 126.577 213.29C126.455 213.547 126.4 213.851 126.412 214.2C126.424 214.549 126.5 214.852 126.639 215.109C126.779 215.366 126.994 215.56 127.286 215.692C127.578 215.827 127.959 215.887 128.43 215.871L130.287 215.807L130.022 208.022L131.078 207.986ZM127.106 212.044L124.826 208.199L126.053 208.157L128.299 212.004L127.106 212.044Z" fill="#F0F0F0"></path><path id="A_8" d="M122.293 208.174L123.398 208.257L119.553 216.721L118.465 216.64L115.919 207.698L117.024 207.781L119.077 215.301L119.145 215.306L122.293 208.174ZM121.631 211.543L117.178 211.211L117.248 210.276L121.701 210.608L121.631 211.543Z" fill="#F0F0F0"></path><path id="N_5" d="M104.722 214.646L106.394 206.08L107.398 206.276L110.752 213.913L110.836 213.929L112.149 207.204L113.187 207.407L111.514 215.972L110.51 215.776L107.142 208.119L107.059 208.103L105.742 214.845L104.722 214.646Z" fill="#F0F0F0"></path><path id="T_2" d="M101.319 212.871L101.042 213.767L94.7885 211.833L95.0654 210.938L97.6873 211.748L99.9882 204.306L100.998 204.618L98.6969 212.06L101.319 212.871Z" fill="#F0F0F0"></path><path id="I_7" d="M91.6652 210.624L94.8027 202.48L95.7889 202.86L92.6513 211.004L91.6652 210.624Z" fill="#F0F0F0"></path><path id="A_9" d="M92.0673 201.438L93.0666 201.917L86.408 208.405L85.424 207.934L86.3017 198.678L87.3011 199.157L86.4814 206.909L86.5429 206.939L92.0673 201.438ZM90.2263 204.337L86.1981 202.408L86.6029 201.563L90.6311 203.491L90.2263 204.337Z" fill="#F0F0F0"></path><path id="I_8" d="M75.431 202.415L80.0984 195.04L80.9913 195.606L76.324 202.98L75.431 202.415Z" fill="#F0F0F0"></path><path id="N_6" d="M67.1383 196.523L72.4002 189.56L73.2162 190.177L72.8788 198.511L72.9468 198.562L77.0782 193.095L77.9213 193.733L72.6594 200.695L71.8435 200.079L72.1775 191.721L72.1095 191.669L67.9678 197.15L67.1383 196.523Z" fill="#F0F0F0"></path><path id="C_3" d="M60.607 186.928L61.3712 187.658C61.2064 187.921 61.101 188.19 61.055 188.464C61.007 188.736 61.0092 189.006 61.0615 189.272C61.1097 189.538 61.203 189.792 61.3411 190.034C61.4793 190.276 61.6531 190.497 61.8626 190.697C62.2447 191.062 62.6831 191.296 63.1777 191.399C63.6703 191.501 64.1876 191.451 64.7295 191.249C65.2694 191.046 65.8004 190.671 66.3224 190.125C66.8444 189.578 67.1945 189.031 67.3729 188.482C67.5492 187.932 67.5755 187.413 67.4518 186.925C67.3261 186.436 67.0722 186.009 66.6901 185.644C66.4805 185.444 66.2518 185.28 66.0037 185.153C65.7557 185.026 65.4986 184.944 65.2325 184.905C64.9624 184.867 64.6924 184.879 64.4225 184.939C64.1486 185 63.885 185.117 63.6318 185.292L62.8677 184.562C63.2333 184.294 63.6138 184.106 64.0091 183.996C64.4044 183.887 64.8005 183.85 65.1972 183.888C65.5919 183.927 65.9741 184.035 66.3439 184.211C66.7115 184.385 67.0546 184.625 67.373 184.929C67.9112 185.443 68.2642 186.032 68.4321 186.695C68.6 187.358 68.5725 188.047 68.3498 188.761C68.127 189.476 67.6977 190.166 67.0619 190.831C66.4261 191.497 65.7564 191.957 65.053 192.213C64.3495 192.468 63.6627 192.527 62.9924 192.389C62.3222 192.252 61.7179 191.926 61.1797 191.412C60.8613 191.108 60.6066 190.776 60.4155 190.417C60.2224 190.055 60.0982 189.678 60.043 189.283C59.9858 188.89 60.0028 188.494 60.0942 188.094C60.1835 187.696 60.3545 187.308 60.607 186.928Z" fill="#F0F0F0"></path><path id="O_3" d="M55.5356 178.565C56.2434 177.977 56.9613 177.596 57.6894 177.423C58.4174 177.25 59.1065 177.27 59.7566 177.483C60.4068 177.696 60.9698 178.089 61.4456 178.661C61.9215 179.234 62.2048 179.859 62.2957 180.537C62.3866 181.215 62.2805 181.896 61.9775 182.58C61.6744 183.265 61.169 183.901 60.4612 184.489C59.7534 185.078 59.0355 185.459 58.3075 185.632C57.5794 185.805 56.8903 185.785 56.2402 185.571C55.5901 185.358 55.0271 184.966 54.5512 184.393C54.0754 183.821 53.792 183.196 53.7011 182.517C53.6103 181.839 53.7163 181.158 54.0194 180.474C54.3224 179.79 54.8279 179.153 55.5356 178.565ZM56.1895 179.351C55.6084 179.835 55.1988 180.339 54.9607 180.866C54.7207 181.391 54.6352 181.903 54.7041 182.404C54.7712 182.902 54.9736 183.355 55.3115 183.761C55.6493 184.167 56.058 184.45 56.5376 184.609C57.0153 184.766 57.5349 184.776 58.0963 184.638C58.6559 184.498 59.2263 184.186 59.8074 183.703C60.3884 183.22 60.799 182.716 61.0389 182.191C61.277 181.665 61.3626 181.152 61.2955 180.654C61.2266 180.153 61.0232 179.7 60.6854 179.293C60.3476 178.887 59.9398 178.605 59.462 178.448C58.9824 178.289 58.4628 178.28 57.9032 178.42C57.3418 178.558 56.7706 178.868 56.1895 179.351Z" fill="#F0F0F0"></path><path id="N_7" d="M45.7674 171.973L53.1271 167.282L53.6768 168.145L50.4542 175.838L50.5 175.91L56.2785 172.227L56.8465 173.118L49.4868 177.809L48.9372 176.946L52.165 169.23L52.1191 169.158L46.3263 172.85L45.7674 171.973Z" fill="#F0F0F0"></path><path id="D_4" d="M50.2929 162.014L51.4506 164.446L43.5709 168.198L42.3619 165.658C41.9979 164.894 41.8443 164.165 41.9009 163.471C41.9549 162.778 42.2066 162.147 42.656 161.577C43.1028 161.009 43.734 160.531 44.5497 160.142C45.3705 159.751 46.1468 159.561 46.8785 159.571C47.6077 159.583 48.2645 159.793 48.8487 160.2C49.4305 160.609 49.9119 161.214 50.2929 162.014ZM50.1499 163.895L49.4757 162.479C49.1655 161.827 48.7828 161.347 48.3275 161.038C47.8721 160.73 47.3623 160.581 46.7979 160.592C46.2335 160.602 45.6306 160.76 44.9894 161.066C44.3532 161.368 43.8551 161.733 43.4949 162.159C43.1321 162.587 42.9259 163.066 42.8763 163.596C42.8241 164.128 42.9445 164.701 43.2376 165.317L43.9631 166.84L50.1499 163.895Z" fill="#F0F0F0"></path><path id="I_9" d="M38.6461 157.082L46.7766 153.91L47.1607 154.895L39.0301 158.066L38.6461 157.082Z" fill="#F0F0F0"></path><path id="C_4" d="M38.1159 146.527L38.4147 147.54C38.1408 147.686 37.9155 147.867 37.739 148.081C37.5616 148.294 37.4293 148.528 37.3421 148.785C37.2513 149.04 37.2055 149.306 37.2047 149.585C37.2039 149.864 37.2444 150.142 37.3263 150.42C37.4757 150.927 37.7391 151.348 38.1165 151.684C38.4931 152.017 38.9665 152.232 39.5367 152.327C40.106 152.42 40.7531 152.36 41.478 152.146C42.2028 151.933 42.7793 151.633 43.2073 151.246C43.6345 150.856 43.916 150.419 44.0516 149.935C44.1865 149.448 44.1793 148.951 44.0299 148.444C43.948 148.166 43.8312 147.911 43.6794 147.677C43.5276 147.443 43.3458 147.244 43.1341 147.078C42.9189 146.91 42.6792 146.786 42.4151 146.703C42.1475 146.619 41.8604 146.59 41.5539 146.615L41.2552 145.601C41.7055 145.552 42.1293 145.578 42.5267 145.68C42.924 145.782 43.2854 145.948 43.6108 146.178C43.9335 146.409 44.2111 146.692 44.4438 147.03C44.6756 147.364 44.8538 147.743 44.9783 148.165C45.1887 148.879 45.2014 149.565 45.0164 150.224C44.8314 150.883 44.4643 151.466 43.9152 151.975C43.366 152.483 42.65 152.867 41.7671 153.127C40.8842 153.388 40.0742 153.453 39.3371 153.324C38.6 153.194 37.9752 152.903 37.4626 152.45C36.9499 151.997 36.5884 151.413 36.378 150.699C36.2535 150.277 36.198 149.862 36.2114 149.456C36.224 149.046 36.3047 148.657 36.4534 148.287C36.5995 147.918 36.8117 147.583 37.0902 147.282C37.3659 146.982 37.7079 146.73 38.1159 146.527Z" fill="#F0F0F0"></path><path id="I_10" d="M34.6983 143.577L43.233 141.754L43.4538 142.787L34.9191 144.611L34.6983 143.577Z" fill="#F0F0F0"></path><path id="O_4" d="M37.3941 132.502C38.3075 132.389 39.1174 132.455 39.8238 132.702C40.5301 132.949 41.0995 133.338 41.5319 133.868C41.9643 134.399 42.2264 135.033 42.3183 135.772C42.4101 136.51 42.3114 137.19 42.0221 137.81C41.7328 138.43 41.276 138.946 40.6517 139.358C40.0274 139.771 39.2585 140.034 38.3451 140.148C37.4317 140.261 36.6218 140.195 35.9154 139.948C35.2091 139.7 34.6397 139.312 34.2073 138.782C33.7749 138.251 33.5128 137.617 33.4209 136.878C33.3291 136.14 33.4278 135.46 33.7171 134.84C34.0064 134.22 34.4632 133.704 35.0875 133.291C35.7118 132.879 36.4807 132.616 37.3941 132.502ZM37.5204 133.517C36.7704 133.61 36.1531 133.815 35.6684 134.13C35.1834 134.442 34.8348 134.827 34.6228 135.286C34.4104 135.742 34.3368 136.232 34.402 136.756C34.4672 137.281 34.6588 137.739 34.9768 138.132C35.2944 138.522 35.7267 138.81 36.2738 138.997C36.8206 139.181 37.4689 139.226 38.2188 139.133C38.9687 139.04 39.5862 138.837 40.0713 138.525C40.556 138.21 40.9045 137.824 41.1169 137.368C41.329 136.91 41.4024 136.418 41.3372 135.894C41.272 135.369 41.0806 134.912 40.763 134.522C40.445 134.13 40.0127 133.841 39.4659 133.657C38.9188 133.471 38.2703 133.424 37.5204 133.517Z" fill="#F0F0F0"></path><path id="N_8" d="M32.723 121.705L41.4503 121.724L41.4481 122.746L34.5859 127.488L34.5857 127.573L41.438 127.587L41.4358 128.644L32.7085 128.626L32.7107 127.603L39.59 122.845L39.5901 122.76L32.7208 122.745L32.723 121.705Z" fill="#F0F0F0"></path><path id="A_10" d="M41.6338 118.065L41.5005 119.165L33.2222 114.933L33.3534 113.85L42.4029 111.719L42.2696 112.819L34.6626 114.524L34.6544 114.592L41.6338 118.065ZM38.2987 117.248L38.836 112.815L39.7667 112.928L39.2294 117.361L38.2987 117.248Z" fill="#F0F0F0"></path><path id="L_2" d="M42.8863 108.978L34.3722 107.061L34.6044 106.03L42.2039 107.741L43.095 103.783L44.0096 103.989L42.8863 108.978Z" fill="#F0F0F0"></path><path id="Vector_3" d="M42.3952 94.1206C43.7925 94.1206 44.9252 92.9878 44.9252 91.5905C44.9252 90.1933 43.7925 89.0605 42.3952 89.0605C40.998 89.0605 39.8652 90.1933 39.8652 91.5905C39.8652 92.9878 40.998 94.1206 42.3952 94.1206Z" fill="#00C5FF"></path><path id="Vector_4" d="M88.0945 46.1205C89.4917 46.1205 90.6245 44.9878 90.6245 43.5905C90.6245 42.1933 89.4917 41.0605 88.0945 41.0605C86.6972 41.0605 85.5645 42.1933 85.5645 43.5905C85.5645 44.9878 86.6972 46.1205 88.0945 46.1205Z" fill="#00C5FF"></path><path id="Vector_5" d="M205.934 160.74C207.332 160.74 208.464 159.607 208.464 158.21C208.464 156.812 207.332 155.68 205.934 155.68C204.537 155.68 203.404 156.812 203.404 158.21C203.404 159.607 204.537 160.74 205.934 160.74Z" fill="#00C5FF"></path><path id="Vector_6" d="M161.684 207.14C163.082 207.14 164.214 206.007 164.214 204.61C164.214 203.213 163.082 202.08 161.684 202.08C160.287 202.08 159.154 203.213 159.154 204.61C159.154 206.007 160.287 207.14 161.684 207.14Z" fill="#00C5FF"></path></g></g><defs><radialGradient id="paint0_radial_2114_2840" cx="0" cy="0" r="1" gradientUnits="userSpaceOnUse" gradientTransform="translate(124.924 124.609) scale(180.65)"><stop stop-color="#00C5FF"></stop><stop offset="0.24" stop-color="#078BCB"></stop><stop offset="0.44" stop-color="#0C61A7"></stop><stop offset="0.54" stop-color="#0E5299"></stop><stop offset="0.62" stop-color="#0D4F94"></stop><stop offset="0.7" stop-color="#0C4888"></stop><stop offset="0.79" stop-color="#0A3C73"></stop><stop offset="0.87" stop-color="#072C56"></stop><stop offset="0.96" stop-color="#031731"></stop><stop offset="1" stop-color="#010C1D"></stop></radialGradient></defs></svg>