<svg xmlns="http://www.w3.org/2000/svg" width="250" height="353" viewBox="0 0 250 353" fill="none"><path d="M72.897 0L79.8981 15.1784L96.4971 17.1465L84.225 28.4953L87.4827 44.8901L72.897 36.7256L58.3113 44.8901L61.5689 28.4953L49.2969 17.1465L65.8959 15.1784L72.897 0Z" fill="#FFBC00"></path><path d="M125.098 0L132.099 15.1784L148.698 17.1465L136.426 28.4953L139.684 44.8901L125.098 36.7256L110.512 44.8901L113.77 28.4953L101.498 17.1465L118.097 15.1784L125.098 0Z" fill="#FFBC00"></path><path d="M177.297 0L184.299 15.1784L200.897 17.1465L188.625 28.4953L191.883 44.8901L177.297 36.7256L162.712 44.8901L165.969 28.4953L153.697 17.1465L170.296 15.1784L177.297 0Z" fill="#FFBC00"></path><rect x="42.6523" y="132.192" width="156.815" height="143.354" fill="#F0F0F0"></rect><mask id="path-5-outside-1_486_353" maskUnits="userSpaceOnUse" x="0.597656" y="63.8896" width="249" height="289" fill="black"><rect fill="white" x="0.597656" y="63.8896" width="249" height="289"></rect><path fill-rule="evenodd" clip-rule="evenodd" d="M237.905 108.58L145.947 69.1692C132.633 63.4631 117.562 63.4631 104.248 69.1692L12.2907 108.58C5.80367 111.36 1.59766 117.738 1.59766 124.796V217.472C1.59766 251.659 18.1077 283.741 45.9266 303.611L104.588 345.513C116.857 354.276 133.338 354.276 145.607 345.513L204.269 303.611C232.088 283.741 248.598 251.659 248.598 217.472V124.796C248.598 117.738 244.392 111.36 237.905 108.58ZM191.803 177.116C197.89 169.507 196.656 158.405 189.047 152.318C181.439 146.231 170.336 147.464 164.249 155.073L105.992 227.895L84.6443 206.548C77.7543 199.658 66.5835 199.658 59.6935 206.548C52.8036 213.437 52.8036 224.608 59.6935 231.498L88.0101 259.815C99.1633 270.968 117.535 269.951 127.388 257.634L191.803 177.116Z"></path></mask><path fill-rule="evenodd" clip-rule="evenodd" d="M237.905 108.58L145.947 69.1692C132.633 63.4631 117.562 63.4631 104.248 69.1692L12.2907 108.58C5.80367 111.36 1.59766 117.738 1.59766 124.796V217.472C1.59766 251.659 18.1077 283.741 45.9266 303.611L104.588 345.513C116.857 354.276 133.338 354.276 145.607 345.513L204.269 303.611C232.088 283.741 248.598 251.659 248.598 217.472V124.796C248.598 117.738 244.392 111.36 237.905 108.58ZM191.803 177.116C197.89 169.507 196.656 158.405 189.047 152.318C181.439 146.231 170.336 147.464 164.249 155.073L105.992 227.895L84.6443 206.548C77.7543 199.658 66.5835 199.658 59.6935 206.548C52.8036 213.437 52.8036 224.608 59.6935 231.498L88.0101 259.815C99.1633 270.968 117.535 269.951 127.388 257.634L191.803 177.116Z" fill="#087FC0"></path><path d="M145.947 69.1692L145.682 69.7878L145.947 69.1692ZM237.905 108.58L237.64 109.198L237.64 109.198L237.905 108.58ZM104.248 69.1692L104.513 69.7878L104.513 69.7878L104.248 69.1692ZM12.2907 108.58L12.5558 109.198L12.5558 109.198L12.2907 108.58ZM45.9266 303.611L46.3178 303.064L46.3178 303.064L45.9266 303.611ZM104.588 345.513L104.979 344.965L104.588 345.513ZM145.607 345.513L145.998 346.06L145.998 346.06L145.607 345.513ZM204.269 303.611L203.878 303.064L203.878 303.064L204.269 303.611ZM189.047 152.318L189.468 151.792L189.468 151.792L189.047 152.318ZM191.803 177.116L192.328 177.536L192.328 177.536L191.803 177.116ZM164.249 155.073L163.724 154.652L163.724 154.652L164.249 155.073ZM105.992 227.895L105.516 228.371L106.048 228.903L106.517 228.315L105.992 227.895ZM59.6935 206.548L59.2176 206.072L59.2176 206.072L59.6935 206.548ZM59.6935 231.498L59.2176 231.974L59.2176 231.974L59.6935 231.498ZM88.0101 259.815L87.5342 260.291L87.5342 260.291L88.0101 259.815ZM127.388 257.634L127.914 258.054L127.388 257.634ZM145.682 69.7878L237.64 109.198L238.17 107.961L146.212 68.5506L145.682 69.7878ZM104.513 69.7878C117.658 64.1543 132.537 64.1543 145.682 69.7878L146.212 68.5506C132.729 62.772 117.466 62.772 103.983 68.5506L104.513 69.7878ZM12.5558 109.198L104.513 69.7878L103.983 68.5506L12.0255 107.961L12.5558 109.198ZM2.27068 124.796C2.27068 118.007 6.31624 111.872 12.5558 109.198L12.0255 107.961C5.29109 110.847 0.924632 117.469 0.924632 124.796H2.27068ZM2.27068 217.472V124.796H0.924632V217.472H2.27068ZM46.3178 303.064C18.6758 283.32 2.27068 251.441 2.27068 217.472H0.924632C0.924632 251.876 17.5397 284.162 45.5354 304.159L46.3178 303.064ZM104.979 344.965L46.3178 303.064L45.5354 304.159L104.197 346.06L104.979 344.965ZM145.216 344.965C133.181 353.561 117.014 353.561 104.979 344.965L104.197 346.06C116.7 354.991 133.495 354.991 145.998 346.06L145.216 344.965ZM203.878 303.064L145.216 344.965L145.998 346.06L204.66 304.159L203.878 303.064ZM247.925 217.472C247.925 251.441 231.52 283.32 203.878 303.064L204.66 304.159C232.656 284.162 249.271 251.876 249.271 217.472H247.925ZM247.925 124.796V217.472H249.271V124.796H247.925ZM237.64 109.198C243.879 111.872 247.925 118.007 247.925 124.796H249.271C249.271 117.469 244.904 110.847 238.17 107.961L237.64 109.198ZM188.627 152.843C195.945 158.698 197.132 169.377 191.277 176.695L192.328 177.536C198.647 169.637 197.367 158.111 189.468 151.792L188.627 152.843ZM164.775 155.493C170.63 148.175 181.309 146.988 188.627 152.843L189.468 151.792C181.569 145.473 170.043 146.754 163.724 154.652L164.775 155.493ZM106.517 228.315L164.775 155.493L163.724 154.652L105.466 227.474L106.517 228.315ZM84.1684 207.023L105.516 228.371L106.468 227.419L85.1202 206.072L84.1684 207.023ZM60.1694 207.023C66.7966 200.396 77.5413 200.396 84.1684 207.023L85.1202 206.072C77.9674 198.919 66.3704 198.919 59.2176 206.072L60.1694 207.023ZM60.1694 231.022C53.5423 224.395 53.5423 213.651 60.1694 207.023L59.2176 206.072C52.0648 213.224 52.0648 224.821 59.2176 231.974L60.1694 231.022ZM88.486 259.339L60.1694 231.022L59.2176 231.974L87.5342 260.291L88.486 259.339ZM126.863 257.213C117.26 269.217 99.3555 270.208 88.486 259.339L87.5342 260.291C98.971 271.728 117.81 270.684 127.914 258.054L126.863 257.213ZM191.277 176.695L126.863 257.213L127.914 258.054L192.328 177.536L191.277 176.695Z" fill="white" mask="url(#path-5-outside-1_486_353)"></path></svg>